<?xml version="1.0" encoding="UTF-8"?>
<svg version="1.1" xmlns="http://www.w3.org/2000/svg" width="500" height="400">
<path d="M0 0 C3.15918396 1.33940357 5.41359557 3.53313902 7.87109375 5.86328125 C8.39928711 6.35763672 8.92748047 6.85199219 9.47167969 7.36132812 C26.69376114 23.67698424 39.89895683 43.3265776 47.18359375 65.92578125 C47.69212891 67.34117188 47.69212891 67.34117188 48.2109375 68.78515625 C54.82533677 89.87807927 49.13922045 110.92756793 39.35791016 129.78173828 C36.75383963 134.53619719 33.60736397 138.74043738 30.18359375 142.92578125 C29.48621094 143.82296875 28.78882813 144.72015625 28.0703125 145.64453125 C21.38396853 154.1004405 13.91243161 162.52760248 5.18359375 168.92578125 C4.52359375 168.92578125 3.86359375 168.92578125 3.18359375 168.92578125 C2.2533497 164.92863009 1.99887364 161.12298783 1.88647461 157.02416992 C1.86682144 156.35044342 1.84716827 155.67671692 1.82691956 154.98257446 C1.7633717 152.76972602 1.70586686 150.55676496 1.6484375 148.34375 C1.60539967 146.80388865 1.56198299 145.26403784 1.51820374 143.72419739 C1.40428893 139.68178881 1.29550745 135.63925792 1.18780518 131.59667969 C1.07687948 127.46736146 0.96108462 123.33818007 0.84570312 119.20898438 C0.62024234 111.11470912 0.40020603 103.02029811 0.18359375 94.92578125 C-0.58089334 100.0219556 -1.00159117 105.00045008 -1.09765625 110.1484375 C-1.11570313 110.92323456 -1.13375 111.69803162 -1.15234375 112.49630737 C-1.19055755 114.14446277 -1.22705804 115.79265866 -1.26196289 117.44088745 C-1.35341578 121.71994972 -1.46001721 125.99863071 -1.56640625 130.27734375 C-1.58707153 131.11613571 -1.60773682 131.95492767 -1.62902832 132.81913757 C-1.79723736 139.5032663 -2.01797779 146.183576 -2.31640625 152.86328125 C-2.35185547 153.70576416 -2.38730469 154.54824707 -2.42382812 155.41625977 C-2.64000387 159.97823171 -3.09568817 164.41528729 -3.81640625 168.92578125 C-8.93021137 166.22789659 -12.90161133 163.35901227 -16.94140625 159.23828125 C-17.49272217 158.67866699 -18.04403809 158.11905273 -18.61206055 157.54248047 C-38.32112091 137.0490771 -51.58626502 113.56663826 -51.1640625 84.64453125 C-50.65991727 72.17379238 -46.61552621 59.91266816 -40.81640625 48.92578125 C-40.3884375 48.06339844 -39.96046875 47.20101562 -39.51953125 46.3125 C-33.30239144 34.24496178 -25.05011276 23.81068948 -15.81640625 13.92578125 C-14.41759703 12.32420885 -13.02167032 10.72011342 -11.62890625 9.11328125 C-3.36403857 -0.13745534 -3.36403857 -0.13745534 0 0 Z " fill="#C5A24F" transform="translate(249.81640625,5.07421875)"/>
<path d="M0 0 C13.04586135 9.18752654 24.19416857 19.94188037 32.390625 33.68359375 C32.390625 34.34359375 32.390625 35.00359375 32.390625 35.68359375 C31.86597656 35.52503906 31.34132812 35.36648437 30.80078125 35.203125 C29.10348131 34.69195813 27.40547354 34.18313955 25.70703125 33.67578125 C23.94051578 33.1472831 22.17423133 32.61798758 20.40966797 32.08300781 C8.43899382 28.45452665 -3.05819841 25.4137176 -15.609375 24.68359375 C-16.49882812 24.62945312 -17.38828125 24.5753125 -18.3046875 24.51953125 C-24.7486103 24.32208515 -30.94242126 25.02513717 -37.296875 25.99609375 C-38.080625 26.1137207 -38.864375 26.23134766 -39.671875 26.35253906 C-45.19837312 27.26046375 -50.34928026 28.77061864 -55.609375 30.68359375 C-54.99151123 30.60657227 -54.37364746 30.52955078 -53.73706055 30.45019531 C-27.09176481 27.29676918 0.5058334 30.53218681 24.953125 41.80859375 C25.68619873 42.14528076 26.41927246 42.48196777 27.17456055 42.82885742 C28.95731418 43.69507225 30.68093187 44.68085348 32.390625 45.68359375 C32.720625 46.67359375 33.050625 47.66359375 33.390625 48.68359375 C25.71334862 63.72549724 8.42584604 74.68797817 -7.15625 79.75390625 C-33.34015956 86.80342036 -58.44600004 79.32992089 -81.609375 66.68359375 C-90.48889422 61.47011691 -98.77368752 55.35364177 -106.609375 48.68359375 C-107.54394531 47.90628906 -108.47851562 47.12898438 -109.44140625 46.328125 C-110.36308594 45.53792969 -111.28476563 44.74773437 -112.234375 43.93359375 C-113.07226562 43.216875 -113.91015625 42.50015625 -114.7734375 41.76171875 C-116.609375 39.68359375 -116.609375 39.68359375 -116.609375 35.68359375 C-114.60503294 33.46589594 -112.64695515 31.53163559 -110.421875 29.55859375 C-109.47163452 28.69971558 -109.47163452 28.69971558 -108.50219727 27.82348633 C-80.57883012 2.88657557 -36.47185937 -23.58905743 0 0 Z " fill="#3F5C3C" transform="translate(210.609375,153.31640625)"/>
<path d="M0 0 C12.94216015 8.35754546 24.99795821 18.41829439 35.6328125 29.55957031 C27.26282827 47.88626565 -2.86968148 62.47161231 -20.71484375 69.25097656 C-41.55435765 76.7975115 -63.15802402 78.23689121 -83.73828125 69.05566406 C-94.14575271 63.77224804 -111.16547479 53.1808787 -115.140625 41.23535156 C-115.21539062 40.68234375 -115.29015625 40.12933594 -115.3671875 39.55957031 C-86.56329405 23.70938313 -55.76563138 20.32446353 -23.3671875 23.55957031 C-26.84440009 22.7385555 -30.32426295 21.9293509 -33.8046875 21.12207031 C-34.77857422 20.89197266 -35.75246094 20.661875 -36.75585938 20.42480469 C-61.65419219 14.67903558 -86.64824916 18.63591715 -110.29296875 27.82519531 C-112.3671875 28.55957031 -112.3671875 28.55957031 -114.3671875 28.55957031 C-112.25614675 22.5659119 -108.41994164 18.36387504 -104.3671875 13.55957031 C-103.69558594 12.73972656 -103.02398437 11.91988281 -102.33203125 11.07519531 C-74.26920399 -21.86584304 -35.36596831 -21.52013336 0 0 Z " fill="#3F5B3B" transform="translate(370.3671875,160.4404296875)"/>
<path d="M0 0 C0.00386719 1.28583984 0.00386719 1.28583984 0.0078125 2.59765625 C0.26439952 11.46784877 0.26439952 11.46784877 5.0859375 18.515625 C14.85519543 26.09178421 25.29822859 29.19541289 37.33642578 31.34155273 C57.24111907 34.94547177 71.12626635 44.20815134 82.84765625 60.65625 C88.98196215 70.18613357 93.89076167 80.22050661 98.0625 90.75 C98.51133545 91.87559326 98.51133545 91.87559326 98.96923828 93.02392578 C100.38086547 96.74011249 101.59048127 99.96379892 101 104 C100.34 104.66 99.68 105.32 99 106 C95.375 105.625 95.375 105.625 92 105 C91.60059204 103.96613159 91.60059204 103.96613159 91.19311523 102.91137695 C79.32615956 70.18836634 79.32615956 70.18836634 54.5 47.0625 C53.675 46.711875 52.85 46.36125 52 46 C52.40089844 46.36609375 52.80179688 46.7321875 53.21484375 47.109375 C66.28639306 59.55846958 73.72400547 74.56055057 80.0625 91.1875 C80.37396973 91.98937744 80.68543945 92.79125488 81.00634766 93.61743164 C82.5090453 97.72652042 83.59397038 100.70212176 82 105 C81 106 81 106 78.625 106.25 C76 106 76 106 74.50390625 104.96484375 C72.28102635 102.06066559 71.40796462 98.75374612 70.3125 95.3125 C63.0667267 73.82392248 51.95414704 54.40501662 31 44 C27.23015955 42.48262236 24.11058911 42 20 42 C20.83402344 42.60585938 21.66804687 43.21171875 22.52734375 43.8359375 C39.23254237 56.17242904 49.18889175 70.99057524 56.6875 90.25 C57.0388501 91.14307861 57.3902002 92.03615723 57.75219727 92.95629883 C58.06471436 93.80087646 58.37723145 94.6454541 58.69921875 95.515625 C58.97596436 96.26102539 59.25270996 97.00642578 59.5378418 97.77441406 C60.09900839 100.4767884 59.74455904 102.36058478 59 105 C58 106 58 106 55.625 106.25 C52.47394458 105.94989948 51.96975798 105.38136924 50 103 C49.14379883 101.13745117 49.14379883 101.13745117 48.45703125 99.04296875 C48.19212891 98.26679199 47.92722656 97.49061523 47.65429688 96.69091797 C47.37650391 95.86479004 47.09871094 95.03866211 46.8125 94.1875 C40.29247111 75.71057942 29.32727254 56.87779807 11 48 C7.70517311 46.82766561 4.39031283 45.85452557 1 45 C1.56847656 45.60585938 2.13695312 46.21171875 2.72265625 46.8359375 C8.02605736 52.59088028 12.74904737 58.43034594 17 65 C17.56332031 65.84433594 18.12664062 66.68867188 18.70703125 67.55859375 C22.77793943 74.03712709 25.67632357 80.7540713 28.4375 87.875 C28.79191162 88.77903564 29.14632324 89.68307129 29.51147461 90.61450195 C32.68558521 99.0853555 32.68558521 99.0853555 32 104 C30 106 30 106 27.5625 106.375 C25 106 25 106 23.4765625 104.3984375 C21.65634259 101.441784 20.80187472 98.5788709 19.8125 95.25 C18.00521209 89.53268031 15.8428249 84.12698415 13.1875 78.75 C12.89270752 78.13801758 12.59791504 77.52603516 12.29418945 76.89550781 C9.20211832 70.80625876 5.09153565 65.44707107 1 60 C0.99191315 60.54679413 0.98382629 61.09358826 0.97549438 61.6569519 C0.88961231 67.33453114 0.79011675 73.0117546 0.68261719 78.68896484 C0.64427158 80.8093469 0.60942867 82.92979526 0.578125 85.05029297 C0.53259534 88.09366598 0.47458161 91.13658032 0.4140625 94.1796875 C0.40251129 95.13181122 0.39096008 96.08393494 0.37905884 97.06491089 C0.35918915 97.94567291 0.33931946 98.82643494 0.31884766 99.73388672 C0.30552399 100.51110077 0.29220032 101.28831482 0.2784729 102.08908081 C0 104 0 104 -2 106 C-4.5 106.25 -4.5 106.25 -7 106 C-9.40233858 103.59766142 -9.26257468 103.01647698 -9.31884766 99.73388672 C-9.33871735 98.85312469 -9.35858704 97.97236267 -9.37905884 97.06491089 C-9.39061005 96.11278717 -9.40216125 95.16066345 -9.4140625 94.1796875 C-9.43342865 93.20589142 -9.4527948 92.23209534 -9.4727478 91.22879028 C-9.53264558 88.11094997 -9.57896971 84.99307294 -9.625 81.875 C-9.66317039 79.76430659 -9.70222156 77.65362892 -9.7421875 75.54296875 C-9.83835527 70.36211856 -9.92337264 65.18117403 -10 60 C-11.42750608 62.02310566 -12.84983355 64.04954982 -14.26953125 66.078125 C-14.66789185 66.64160645 -15.06625244 67.20508789 -15.47668457 67.78564453 C-22.09477284 77.26807658 -26.45829329 87.54803467 -30.04760742 98.49121094 C-31.80683905 103.80683905 -31.80683905 103.80683905 -34 106 C-36.5 106.25 -36.5 106.25 -39 106 C-39.66 105.34 -40.32 104.68 -41 104 C-40.67450613 98.46660418 -39.44113879 93.60687502 -37.4375 88.4375 C-37.17283936 87.75059082 -36.90817871 87.06368164 -36.63549805 86.35595703 C-31.34357126 73.01853095 -24.20357396 61.960216 -15 51 C-14.05575744 49.86607869 -13.1117378 48.7319717 -12.16796875 47.59765625 C-11.45253906 46.74042969 -10.73710937 45.88320313 -10 45 C-26.71684719 49.60318981 -38.22020593 60.36153192 -47 75 C-50.36070736 80.95855477 -53.33588118 86.93824678 -55.5546875 93.40625 C-55.80903564 94.13996826 -56.06338379 94.87368652 -56.32543945 95.62963867 C-56.80723758 97.05652078 -57.26525588 98.49171266 -57.69604492 99.93481445 C-58.34765625 101.89453125 -58.34765625 101.89453125 -60 105 C-62.99609375 106.13671875 -62.99609375 106.13671875 -66 106 C-67.8984375 104.79296875 -67.8984375 104.79296875 -69 103 C-66.85531759 81.91062297 -51.24483007 60.58569241 -36 47 C-33.39258906 45.12249536 -30.81437656 43.56354253 -28 42 C-40.7673259 42.42557753 -50.35406112 48.96530487 -59 58 C-68.46394423 68.54743317 -74.08468937 81.90222864 -79 95 C-79.76515569 96.96055866 -80.53520395 98.91922284 -81.3125 100.875 C-81.77076172 102.04675781 -81.77076172 102.04675781 -82.23828125 103.2421875 C-83 105 -83 105 -84 106 C-86.375 106.375 -86.375 106.375 -89 106 C-90.87109375 104.125 -90.87109375 104.125 -92 101 C-91.37472928 97.3637246 -90.04323855 94.04586505 -88.6875 90.625 C-88.12252808 89.15160156 -88.12252808 89.15160156 -87.54614258 87.6484375 C-81.92185996 73.31630684 -74.78277922 61.8373209 -65 50 C-63.98999314 48.67423082 -62.98475491 47.34463212 -62 46 C-81.96843824 59.47135448 -92.36452587 79.12018999 -99.17578125 101.7421875 C-100 104 -100 104 -102 106 C-104.4375 106.3125 -104.4375 106.3125 -107 106 C-108.66015625 104.48046875 -108.66015625 104.48046875 -110 103 C-104.62953735 79.31881708 -92.12010003 54.44375725 -71.5546875 40.578125 C-63.08623043 35.34684571 -54.66193892 32.54493924 -44.84130859 30.97949219 C-32.06945271 28.93667056 -20.98881118 25.2508916 -11.8125 15.73046875 C-9.05114061 11.57057604 -9.51284052 7.72977186 -9.46875 2.86328125 C-9 0 -9 0 -7.28125 -1.51953125 C-4.28179746 -2.15126526 -2.69531012 -1.34765506 0 0 Z M-17 31 C-17 31.33 -17 31.66 -17 32 C-14.36 32.33 -11.72 32.66 -9 33 C-9 31.02 -9 29.04 -9 27 C-12.30798719 27 -14.38895595 29.1268597 -17 31 Z M0 27 C0 28.98 0 30.96 0 33 C2.64 32.67 5.28 32.34 8 32 C5.31158141 29.74754119 3.35358125 28.11786042 0 27 Z " fill="#4E6449" transform="translate(254,290)"/>
<path d="M0 0 C0.83914184 -0.00145344 1.67828369 -0.00290688 2.54285407 -0.00440437 C5.38538847 -0.00808539 8.22786995 -0.00456826 11.07040405 -0.0011425 C13.11660604 -0.00229349 15.16280782 -0.00388086 17.20900917 -0.00586975 C22.85581541 -0.01006612 28.50260488 -0.00797099 34.1494112 -0.00488353 C40.22990854 -0.0026309 46.3104029 -0.00610835 52.39089966 -0.00886345 C63.62215749 -0.01306361 74.8534099 -0.01268484 86.08466762 -0.00995198 C96.45892165 -0.00743994 106.83317371 -0.00677808 117.20742798 -0.00797462 C117.89462825 -0.00805101 118.58182853 -0.00812739 119.28985305 -0.00820609 C122.07917381 -0.00851741 124.86849456 -0.00883581 127.65781531 -0.00916586 C153.84275826 -0.0122273 180.02769778 -0.00944752 206.2126402 -0.00406896 C229.49449431 0.00067691 252.77634296 0.0002523 276.05819702 -0.00452995 C302.19416322 -0.00988047 328.33012639 -0.01201022 354.46609306 -0.00891769 C357.25043615 -0.00859695 360.03477923 -0.00828412 362.81912231 -0.00797462 C363.50473711 -0.00789555 364.1903519 -0.00781647 364.8967429 -0.007735 C375.2664187 -0.00659582 385.63609232 -0.00793097 396.00576782 -0.01045418 C407.79235217 -0.0133078 419.57893129 -0.01251398 431.36551523 -0.00717343 C437.38487267 -0.00453638 443.40421898 -0.00353143 449.42357635 -0.00682259 C454.9255331 -0.00978546 460.42746832 -0.00819287 465.92942309 -0.00284503 C467.92803957 -0.00172081 469.92665784 -0.00231214 471.92527318 -0.00472082 C474.62572536 -0.00772762 477.32610216 -0.00467733 480.02655029 0 C481.21144472 -0.00351175 481.21144472 -0.00351175 482.4202764 -0.00709444 C487.7849744 0.01169077 487.7849744 0.01169077 490.01327515 1.12584114 C490.01327515 2.44584114 490.01327515 3.76584114 490.01327515 5.12584114 C325.01327515 5.12584114 160.01327515 5.12584114 -9.98672485 5.12584114 C-9.98672485 3.80584114 -9.98672485 2.48584114 -9.98672485 1.12584114 C-6.83537208 -0.44983525 -3.45979301 -0.01025402 0 0 Z " fill="#CBBA8D" transform="translate(9.986724853515625,278.87415885925293)"/>
<path d="M0 0 C4.62 0 9.24 0 14 0 C13.34 1.65 12.68 3.3 12 5 C11.72967623 7.31162296 11.72967623 7.31162296 11.8046875 9.64453125 C11.81113281 10.48564453 11.81757813 11.32675781 11.82421875 12.19335938 C11.84097656 13.05767578 11.85773437 13.92199219 11.875 14.8125 C11.88853516 16.13797852 11.88853516 16.13797852 11.90234375 17.49023438 C11.92580363 19.66027359 11.96167135 21.83017247 12 24 C14.06571628 21.96150399 16.12759264 19.9193525 18.1875 17.875 C18.76564453 17.30523437 19.34378906 16.73546875 19.93945312 16.1484375 C21.64667984 14.45085614 23.33014657 12.73432847 25 11 C25.50869629 10.47438477 26.01739258 9.94876953 26.54150391 9.40722656 C29.76317045 5.859416 30 5.09974166 30 0 C33.96 0 37.92 0 42 0 C42 0.99 42 1.98 42 3 C40.49759766 3.52013672 40.49759766 3.52013672 38.96484375 4.05078125 C34.20483603 6.09078456 31.07862016 9.47790021 27.5625 13.1875 C26.92634766 13.84169922 26.29019531 14.49589844 25.63476562 15.16992188 C24.08027112 16.7711681 22.53595847 18.38099948 21 20 C21.53109375 20.23074219 22.0621875 20.46148437 22.609375 20.69921875 C30.57601379 24.37724724 33.41876149 29.31831469 36.6875 37.1875 C37.29535879 38.61858055 37.90342219 40.04957422 38.51171875 41.48046875 C39.24841797 43.22263672 39.24841797 43.22263672 40 45 C41.25541557 47.51083114 42.50063488 47.87125446 45 49 C45 49.66 45 50.32 45 51 C42.17998673 52.41000664 40.12992745 52.24548451 37 52 C32.82848525 50.57558033 31.42092668 48.27004302 29.5 44.5 C28.64911071 42.67474852 27.81672508 40.84079214 27 39 C26.1054194 36.99943935 25.20961135 34.99942706 24.3125 33 C23.91675781 32.0925 23.52101563 31.185 23.11328125 30.25 C22.08679228 27.87333489 22.08679228 27.87333489 20 26 C17.17977634 25.63843286 15.65452106 25.4947882 13.36254883 27.26391602 C11.70004131 29.38219069 11.62557452 30.42456488 11.63671875 33.08984375 C11.63768555 34.26643555 11.63768555 34.26643555 11.63867188 35.46679688 C11.65478516 36.28212891 11.67089844 37.09746094 11.6875 37.9375 C11.68427734 38.74896484 11.68105469 39.56042969 11.67773438 40.39648438 C11.71525714 44.55468922 11.91828124 47.31672006 14 51 C13 52 13 52 10.05859375 52.09765625 C8.86363281 52.08605469 7.66867187 52.07445312 6.4375 52.0625 C4.64119141 52.04896484 4.64119141 52.04896484 2.80859375 52.03515625 C1.88175781 52.02355469 0.95492188 52.01195312 0 52 C0.57584432 49.61435923 1.22227595 47.33317216 2 45 C2.08589303 43.60344541 2.11772715 42.20314223 2.11352539 40.80395508 C2.11344986 39.96331009 2.11337433 39.1226651 2.11329651 38.25654602 C2.10813522 37.35333115 2.10297394 36.45011627 2.09765625 35.51953125 C2.0962413 34.59154221 2.09482635 33.66355316 2.09336853 32.70744324 C2.08776937 29.74242942 2.07521704 26.77749101 2.0625 23.8125 C2.05748489 21.80273547 2.052922 19.79296975 2.04882812 17.78320312 C2.03780021 12.85543968 2.02053617 7.92773263 2 3 C1.34 3 0.68 3 0 3 C0 2.01 0 1.02 0 0 Z " fill="#586C54" transform="translate(2,225)"/>
<path d="M0 0 C0.80103149 0.00202423 1.60206299 0.00404846 2.42736816 0.00613403 C3.24483521 0.00517731 4.06230225 0.00422058 4.90454102 0.00323486 C6.63627194 0.00255308 8.3680054 0.00440724 10.09973145 0.00857544 C12.75978298 0.01392374 15.41966566 0.00863041 18.07971191 0.00222778 C19.75809771 0.00288857 21.43648339 0.00416973 23.11486816 0.00613403 C23.91589966 0.0041098 24.71693115 0.00208557 25.54223633 0 C31.15616738 0.02399575 31.15616738 0.02399575 32.27111816 1.13894653 C32.3429178 2.65822691 32.35503824 4.18062135 32.33361816 5.70144653 C32.32459473 6.5277356 32.31557129 7.35402466 32.30627441 8.20535278 C32.29467285 8.84343872 32.28307129 9.48152466 32.27111816 10.13894653 C31.28111816 10.13894653 30.29111816 10.13894653 29.27111816 10.13894653 C29.02361816 9.52019653 28.77611816 8.90144653 28.52111816 8.26394653 C26.98520701 5.65289757 26.11445378 5.13795634 23.27111816 4.13894653 C20.940559 3.78673984 18.60729813 3.45170637 16.27111816 3.13894653 C16.3646983 9.04742922 16.47080302 14.95550435 16.58850098 20.86355591 C16.62677486 22.87325891 16.66163052 24.88303005 16.69299316 26.89285278 C16.73867807 29.78242333 16.79666703 32.67152549 16.85705566 35.56082153 C16.86860687 36.45887512 16.88015808 37.35692871 16.89205933 38.28219604 C16.91192902 39.1227655 16.93179871 39.96333496 16.95227051 40.82937622 C16.96559418 41.56661926 16.97891785 42.3038623 16.99264526 43.06344604 C17.3098052 45.42728682 18.19278285 47.02847827 19.27111816 49.13894653 C19.27111816 50.12894653 19.27111816 51.11894653 19.27111816 52.13894653 C14.98111816 52.13894653 10.69111816 52.13894653 6.27111816 52.13894653 C6.60111816 50.81894653 6.93111816 49.49894653 7.27111816 48.13894653 C7.38138673 46.61307368 7.44636488 45.08354193 7.47644043 43.5539856 C7.49638565 42.65335388 7.51633087 41.75272217 7.53688049 40.82479858 C7.55359299 39.86112366 7.57030548 38.89744873 7.58752441 37.90457153 C7.61869606 36.41482819 7.61869606 36.41482819 7.65049744 34.89498901 C7.71581566 31.72637771 7.77479556 28.55768443 7.83361816 25.38894653 C7.87682024 23.23919851 7.92043507 21.08945875 7.96447754 18.93972778 C8.07147888 13.67288705 8.17327807 8.40596499 8.27111816 3.13894653 C6.81954565 3.40505875 5.37081489 3.6867038 3.92346191 3.97488403 C3.11642822 4.13005493 2.30939453 4.28522583 1.47790527 4.44509888 C-1.70273573 5.44514111 -2.94152248 7.42216031 -4.72888184 10.13894653 C-5.38888184 10.13894653 -6.04888184 10.13894653 -6.72888184 10.13894653 C-6.755774 8.65987761 -6.77522805 7.18067171 -6.79138184 5.70144653 C-6.8029834 4.8777356 -6.81458496 4.05402466 -6.82653809 3.20535278 C-6.62221117 -1.1182048 -3.62314022 0.01548647 0 0 Z " fill="#61715F" transform="translate(466.7288818359375,224.86105346679688)"/>
<path d="M0 0 C13.34050288 -0.4940927 13.34050288 -0.4940927 16.4296875 1.8203125 C18.51369161 4.71303462 18.45492286 6.51225811 18 10 C17.34 10.66 16.68 11.32 16 12 C16.32879647 14.38377441 17.14014266 16.33799112 18.0625 18.5625 C19 21 19 21 19 24 C20.32 24 21.64 24 23 24 C23 16.74 23 9.48 23 2 C22.34 2 21.68 2 21 2 C21 1.34 21 0.68 21 0 C27.27 0 33.54 0 40 0 C40 1.98 40 3.96 40 6 C39.01 5.67 38.02 5.34 37 5 C37 4.34 37 3.68 37 3 C34.03 2.67 31.06 2.34 28 2 C28 4.97 28 7.94 28 11 C31.46941546 10.54177532 34.67395049 10.10868317 38 9 C38 11.31 38 13.62 38 16 C33.05 15.01 33.05 15.01 28 14 C28 17.3 28 20.6 28 24 C29.44375 23.896875 30.8875 23.79375 32.375 23.6875 C33.18710937 23.62949219 33.99921875 23.57148438 34.8359375 23.51171875 C37.37921338 23.17009472 37.37921338 23.17009472 39 20 C39.66 20 40.32 20 41 20 C41.04254356 21.99954746 41.04080783 24.00041636 41 26 C38.51659749 28.48340251 32.02094815 27.28239662 28.6875 27.3125 C27.62853516 27.34150391 26.56957031 27.37050781 25.47851562 27.40039062 C23.94807617 27.41295898 23.94807617 27.41295898 22.38671875 27.42578125 C21.45045654 27.44036377 20.51419434 27.45494629 19.54956055 27.4699707 C16.24748369 26.86128566 15.09397133 25.56269991 13 23 C12.10572692 20.92235694 11.51937565 18.88120707 10.90625 16.70703125 C10.13027665 14.78030067 10.13027665 14.78030067 7.90625 14.26171875 C7.2771875 14.17535156 6.648125 14.08898437 6 14 C6.0721875 14.68707031 6.144375 15.37414062 6.21875 16.08203125 C6.3115625 16.98308594 6.404375 17.88414062 6.5 18.8125 C6.5928125 19.70582031 6.685625 20.59914063 6.78125 21.51953125 C7 24 7 24 7 27 C4.69 27 2.38 27 0 27 C0 18.09 0 9.18 0 0 Z M6 2 C6 4.97 6 7.94 6 11 C7.98 11 9.96 11 12 11 C13.01540112 6.89776415 13.01540112 6.89776415 12 3 C8.97065509 2.34227572 8.97065509 2.34227572 6 2 Z " fill="#647560" transform="translate(353,248)"/>
<path d="M0 0 C1.32 0 2.64 0 4 0 C5.5056651 3.62267294 7.00356546 7.24850549 8.5 10.875 C8.92925781 11.90753906 9.35851562 12.94007813 9.80078125 14.00390625 C10.40986328 15.48310547 10.40986328 15.48310547 11.03125 16.9921875 C11.40830078 17.90339355 11.78535156 18.81459961 12.17382812 19.75341797 C13 22 13 22 13 24 C13.99 24 14.98 24 16 24 C15.86116581 20.56217969 15.71272946 17.12483971 15.5625 13.6875 C15.52318359 12.71103516 15.48386719 11.73457031 15.44335938 10.72851562 C15.40146484 9.79072266 15.35957031 8.85292969 15.31640625 7.88671875 C15.27974854 7.02264404 15.24309082 6.15856934 15.20532227 5.26831055 C15.07252646 2.8352174 15.07252646 2.8352174 14 0 C16.6015625 -0.5 16.6015625 -0.5 20 0 C22.54901966 2.36003267 24.41978912 5.14201274 26.375 8 C26.92027344 8.763125 27.46554688 9.52625 28.02734375 10.3125 C29.36923962 12.19586263 30.68700805 14.09637413 32 16 C32.33 11.38 32.66 6.76 33 2 C32.34 2 31.68 2 31 2 C31 1.34 31 0.68 31 0 C32.98 0 34.96 0 37 0 C36.67 8.91 36.34 17.82 36 27 C32.37460467 25.18730233 31.31154934 24.50829155 28.984375 21.5234375 C28.45585937 20.853125 27.92734375 20.1828125 27.3828125 19.4921875 C26.84398437 18.79351562 26.30515625 18.09484375 25.75 17.375 C25.19570312 16.66859375 24.64140625 15.9621875 24.0703125 15.234375 C22.70686097 13.49479891 21.35252996 11.74808117 20 10 C19.67 14.62 19.34 19.24 19 24 C19.66 24 20.32 24 21 24 C21 24.99 21 25.98 21 27 C16.38 27 11.76 27 7 27 C6.67 24.03 6.34 21.06 6 18 C2.7 18 -0.6 18 -4 18 C-4.33 20.97 -4.66 23.94 -5 27 C-6.65 27 -8.3 27 -10 27 C-10 23.64806213 -9.341972 22.51164802 -7.75 19.625 C-5.05858266 14.44860926 -3.39115932 9.18944074 -1.796875 3.58984375 C-1 1 -1 1 0 0 Z M0 8 C-0.66 10.31 -1.32 12.62 -2 15 C-0.02 15 1.96 15 4 15 C3.01 12.69 2.02 10.38 1 8 C0.67 8 0.34 8 0 8 Z " fill="#61725C" transform="translate(203,248)"/>
<path d="M0 0 C2.64 0 5.28 0 8 0 C8.64894237 2.06152389 9.2940264 4.12426258 9.9375 6.1875 C10.29714844 7.33605469 10.65679687 8.48460937 11.02734375 9.66796875 C11.83756036 12.44353006 12.49134307 15.15687548 13 18 C13.66 18 14.32 18 15 18 C15.1546875 17.01 15.1546875 17.01 15.3125 16 C16.03589127 12.84338355 17.12447591 10.03952129 18.37890625 7.0625 C19.24028832 4.5610594 19.24028832 4.5610594 19 0 C26.92 0 34.84 0 43 0 C43 1.98 43 3.96 43 6 C42.34 6 41.68 6 41 6 C40.4121875 5.2884375 40.4121875 5.2884375 39.8125 4.5625 C37.13387641 2.25334174 34.43923968 2.32445657 31 2 C31 4.97 31 7.94 31 11 C34.46941546 10.54177532 37.67395049 10.10868317 41 9 C41 11.31 41 13.62 41 16 C40.34 16 39.68 16 39 16 C39 15.34 39 14.68 39 14 C36.36 14 33.72 14 31 14 C31 17.3 31 20.6 31 24 C32.44375 23.896875 33.8875 23.79375 35.375 23.6875 C36.18710937 23.62949219 36.99921875 23.57148438 37.8359375 23.51171875 C40.37921338 23.17009472 40.37921338 23.17009472 42 20 C42.66 20 43.32 20 44 20 C44.04254356 21.99954746 44.04080783 24.00041636 44 26 C43 27 43 27 41.23413086 27.11352539 C40.48526611 27.10828857 39.73640137 27.10305176 38.96484375 27.09765625 C37.87224243 27.09390991 37.87224243 27.09390991 36.75756836 27.09008789 C35.8269458 27.08098389 34.89632324 27.07187988 33.9375 27.0625 C29.5134375 27.0315625 29.5134375 27.0315625 25 27 C25.33 18.75 25.66 10.5 26 2 C22.64547154 4.23635231 22.3264653 5.06819891 20.9921875 8.71875 C20.64542969 9.65074219 20.29867188 10.58273437 19.94140625 11.54296875 C19.41353516 13.00669922 19.41353516 13.00669922 18.875 14.5 C18.16467123 16.4273078 17.45376213 18.35440184 16.7421875 20.28125 C16.4313623 21.13783203 16.12053711 21.99441406 15.80029297 22.87695312 C15 25 15 25 14 27 C11 26 11 26 9.94091797 24.22167969 C9.62783691 23.46274414 9.31475586 22.70380859 8.9921875 21.921875 C8.64542969 21.09042969 8.29867188 20.25898438 7.94140625 19.40234375 C7.58949219 18.52707031 7.23757813 17.65179688 6.875 16.75 C6.51535156 15.89019531 6.15570313 15.03039062 5.78515625 14.14453125 C4.11876229 10.09400809 2.76524335 6.32778075 2 2 C1.34 2 0.68 2 0 2 C0 1.34 0 0.68 0 0 Z " fill="#5C6E59" transform="translate(300,248)"/>
<path d="M0 0 C9.57 0 19.14 0 29 0 C29 0.66 29 1.32 29 2 C28.34 2 27.68 2 27 2 C27.14080555 4.77117304 27.28743118 7.54182641 27.4375 10.3125 C27.47681641 11.09818359 27.51613281 11.88386719 27.55664062 12.69335938 C27.59853516 13.45068359 27.64042969 14.20800781 27.68359375 14.98828125 C27.72025146 15.68477783 27.75690918 16.38127441 27.79467773 17.09887695 C27.95581153 19.2216572 27.95581153 19.2216572 29 22 C31.81989159 23.59628479 31.81989159 23.59628479 39 23 C39.33 16.07 39.66 9.14 40 2 C39.34 2 38.68 2 38 2 C38 1.34 38 0.68 38 0 C39.98 0 41.96 0 44 0 C43.91874075 3.23016726 43.80593395 6.45849888 43.6875 9.6875 C43.66494141 10.59951172 43.64238281 11.51152344 43.61914062 12.45117188 C43.26888783 21.20749169 43.26888783 21.20749169 40 25 C36.35256669 27.52629602 33.35844409 27.12870207 29.125 26.55078125 C26.1726196 25.7855503 24.77286249 24.43768592 23 22 C21.5192152 19.0384304 21.64685963 16.16493705 21.4375 12.875 C21.31181641 10.95300781 21.31181641 10.95300781 21.18359375 8.9921875 C21.12300781 8.00476563 21.06242187 7.01734375 21 6 C20.01 5.67 19.02 5.34 18 5 C18 4.34 18 3.68 18 3 C15.525 2.505 15.525 2.505 13 2 C13.03029297 2.65073486 13.06058594 3.30146973 13.09179688 3.97192383 C13.22857717 6.91874998 13.36430066 9.86562388 13.5 12.8125 C13.54769531 13.83666016 13.59539062 14.86082031 13.64453125 15.91601562 C13.68964844 16.89892578 13.73476562 17.88183594 13.78125 18.89453125 C13.8440918 20.25348511 13.8440918 20.25348511 13.90820312 21.63989258 C13.97765497 23.42550689 14 25.21303553 14 27 C11.69 27 9.38 27 7 27 C7 24.28713597 7.0934571 21.60399011 7.21875 18.89453125 C7.26386719 17.91162109 7.30898437 16.92871094 7.35546875 15.91601562 C7.40316406 14.89185547 7.45085937 13.86769531 7.5 12.8125 C7.54769531 11.77673828 7.59539062 10.74097656 7.64453125 9.67382812 C7.76241012 7.11585658 7.88092405 4.55791605 8 2 C4.27385847 3.11854586 4.27385847 3.11854586 2 6 C1.34 6 0.68 6 0 6 C0 4.02 0 2.04 0 0 Z " fill="#8B9886" transform="translate(73,248)"/>
<path d="M0 0 C-0.00523682 0.65258789 -0.01047363 1.30517578 -0.01586914 1.97753906 C-0.09507601 13.42744338 -0.13165778 24.87128519 0.375 36.3125 C0.4212854 37.54564941 0.4212854 37.54564941 0.46850586 38.80371094 C0.6625564 42.62017272 0.86007604 45.75531855 3 49 C2 50 2 50 -0.94140625 50.09765625 C-2.13636719 50.08605469 -3.33132813 50.07445312 -4.5625 50.0625 C-6.35880859 50.04896484 -6.35880859 50.04896484 -8.19140625 50.03515625 C-9.11824219 50.02355469 -10.04507812 50.01195312 -11 50 C-10.42415568 47.61435923 -9.77772405 45.33317216 -9 43 C-8.34 43 -7.68 43 -7 43 C-7.495 22.21 -7.495 22.21 -8 1 C-5.29120665 -0.35439668 -2.99066732 -0.06501451 0 0 Z " fill="#435B3F" transform="translate(13,227)"/>
<path d="M0 0 C13.2972973 -0.36936937 13.2972973 -0.36936937 16.4375 1.28125 C18 3 18 3 18.25 6.6875 C18.1675 7.780625 18.085 8.87375 18 10 C16.02 10.99 16.02 10.99 14 12 C14.639375 13.051875 15.27875 14.10375 15.9375 15.1875 C17.61754452 18.10828412 18.58996052 20.6171743 19 24 C19.99 24.33 20.98 24.66 22 25 C22 25.66 22 26.32 22 27 C18.8125 27.125 18.8125 27.125 15 26 C12.54514813 22.54254774 10 18.33370712 10 14 C8.68 14 7.36 14 6 14 C6.14148989 15.6045556 6.28835686 17.20863767 6.4375 18.8125 C6.51871094 19.70582031 6.59992188 20.59914063 6.68359375 21.51953125 C6.93489767 24.12743559 6.93489767 24.12743559 8 27 C5.36 27 2.72 27 0 27 C0 18.09 0 9.18 0 0 Z M6 2 C6 4.97 6 7.94 6 11 C8.41645782 11.16687448 8.41645782 11.16687448 11 11 C11.66 10.34 12.32 9.68 13 9 C12.90888062 6.46048456 12.90888062 6.46048456 12 4 C9.18490007 1.7226499 9.18490007 1.7226499 6 2 Z " fill="#81927E" transform="translate(444,248)"/>
<path d="M0 0 C3.27340444 2.87662815 4.71806496 5.56723485 5.875 9.75 C6.16909771 14.55359591 4.8730567 17.62368351 2.1875 21.5625 C-1.15052657 25.09688108 -2.86138166 25.70665229 -7.75 26.1875 C-12.47937478 26.04632463 -15.14781255 24.63618869 -18.9375 21.8125 C-21.67956083 17.9205427 -22.48573533 14.44498082 -22.2890625 9.76953125 C-21.51435146 5.45697314 -18.99909257 2.74919932 -15.8125 -0.0625 C-10.59402474 -2.10451206 -5.1946304 -2.09995697 0 0 Z M-14.9375 2.8125 C-16.78257544 6.50265088 -16.2903493 10.77639924 -15.9375 14.8125 C-14.39521534 18.92525909 -13.60078593 20.37030938 -9.9375 22.8125 C-5.86259248 23.15207563 -4.40748729 23.12582486 -0.9375 20.8125 C0.75505192 15.73484424 0.67500636 11.43564185 -1.1875 6.5 C-2.93057544 3.82313415 -4.14527663 2.33553093 -6.9375 0.8125 C-10.69232645 0.8125 -11.9056144 0.93063998 -14.9375 2.8125 Z " fill="#798876" transform="translate(436.9375,249.1875)"/>
<path d="M0 0 C3.48350269 1.99753301 6.19448387 4.38896774 8 8 C8.54317573 12.9509132 8.52241949 16.89488185 6.375 21.4375 C2.75545807 25.34279524 -0.20795912 26.80799562 -5.5 27.375 C-10.82025411 26.80497277 -13.78100622 25.34730892 -17.375 21.375 C-19.45078461 17.06375504 -19.7140551 13.7023141 -19 9 C-15.39129764 0.45307336 -8.71376495 -1.69296005 0 0 Z M-11.25 3.5625 C-13.60632343 6.84452193 -13.93267807 8.96068441 -14 13 C-13.12456072 16.90359811 -11.88575195 20.02261853 -9.1875 23 C-6.24980674 24.34294549 -4.1929612 24.40761207 -1 24 C1.03667615 22.45493534 1.86073078 21.27853844 3 19 C3.58834309 13.11656907 2.30902822 8.81413804 -1 4 C-4.90872371 1.39418419 -7.27496403 0.80205835 -11.25 3.5625 Z " fill="#8B9987" transform="translate(294,248)"/>
<path d="M0 0 C5 0 5 0 7.60546875 2.51953125 C8.48150542 3.60496851 9.34181205 4.70325423 10.1875 5.8125 C10.62513672 6.35970703 11.06277344 6.90691406 11.51367188 7.47070312 C13.45624473 9.9174552 15.26658741 12.39988111 17 15 C17.33 10.71 17.66 6.42 18 2 C17.34 2 16.68 2 16 2 C16 1.34 16 0.68 16 0 C17.98 0 19.96 0 22 0 C21.67 8.91 21.34 17.82 21 27 C17.25549268 25.12774634 16.29342939 24.46708807 13.984375 21.3046875 C13.45585937 20.58925781 12.92734375 19.87382812 12.3828125 19.13671875 C11.84398437 18.39035156 11.30515625 17.64398438 10.75 16.875 C9.91855469 15.74384766 9.91855469 15.74384766 9.0703125 14.58984375 C7.70615897 12.73177256 6.34979822 10.86851184 5 9 C4.97292861 11.24993359 4.95357171 13.49996095 4.9375 15.75 C4.92589844 17.00296875 4.91429688 18.2559375 4.90234375 19.546875 C4.97978973 22.28536501 5.17219185 24.41880293 6 27 C4.02 27 2.04 27 0 27 C0 18.09 0 9.18 0 0 Z " fill="#808E7B" transform="translate(118,248)"/>
<path d="M0 0 C1.65 0 3.3 0 5 0 C5 14.19 5 28.38 5 43 C5.66 43 6.32 43 7 43 C8.4606285 45.64738916 9 46.89448334 9 50 C4.71 50 0.42 50 -4 50 C-3.67 48.68 -3.34 47.36 -3 46 C-2.34 46 -1.68 46 -1 46 C-0.67 30.82 -0.34 15.64 0 0 Z " fill="#425A3E" transform="translate(477,227)"/>
<path d="M0 0 C1.051875 -0.01675781 2.10375 -0.03351563 3.1875 -0.05078125 C6 0.3125 6 0.3125 7.875 1.58203125 C9 3.3125 9 3.3125 9 7.3125 C8.01 7.3125 7.02 7.3125 6 7.3125 C5.5875 6.838125 5.175 6.36375 4.75 5.875 C2.03829102 3.45383127 -0.45087931 3.43925431 -4 3.3125 C-6.14860073 4.81652051 -6.83552492 5.98354985 -8 8.3125 C-8.36010618 13.71409272 -8.55200917 17.92472397 -5 22.3125 C-1.70840474 23.41499889 1.55550008 23.93767637 5 24.3125 C5.33 21.6725 5.66 19.0325 6 16.3125 C5.34 16.3125 4.68 16.3125 4 16.3125 C4 15.3225 4 14.3325 4 13.3125 C5.99954746 13.26995644 8.00041636 13.27169217 10 13.3125 C11 14.3125 11 14.3125 11.375 18.125 C11.34375667 21.61175618 11.22686854 22.07336829 8.6875 24.75 C4.30808003 27.2961744 1.02385804 27.65310055 -4 27.3125 C-8.62994259 25.58761943 -11.62722164 23.69301389 -14 19.3125 C-14.72527162 14.8727532 -15.09387427 10.42509687 -12.9765625 6.3359375 C-9.13137756 1.60519481 -5.9649117 0.02192982 0 0 Z " fill="#909A8D" transform="translate(156,247.6875)"/>
<path d="M0 0 C0.66 0.33 1.32 0.66 2 1 C2 2.98 2 4.96 2 7 C1.01 6.67 0.02 6.34 -1 6 C-1 5.34 -1 4.68 -1 4 C-2.41303238 3.7493981 -3.83079474 3.52538079 -5.25 3.3125 C-6.03890625 3.18488281 -6.8278125 3.05726563 -7.640625 2.92578125 C-10.07214098 2.83616699 -10.07214098 2.83616699 -12.26953125 4.14453125 C-14.57891636 6.62073424 -14.50625159 8.02908907 -14.4375 11.375 C-14.28405932 15.67133895 -13.90655125 18.64628702 -11 22 C-8.04335481 23.4783226 -5.25770263 23.06032783 -2 23 C-2 19.7 -2 16.4 -2 13 C-0.02 13 1.96 13 4 13 C4.10824843 14.6026782 4.18570645 16.20745748 4.25 17.8125 C4.29640625 18.70582031 4.3428125 19.59914063 4.390625 20.51953125 C4 23 4 23 2.171875 24.76171875 C-1.9595141 27.11720498 -5.30494243 27.31830899 -10 27 C-14.64646027 25.26896578 -17.43863658 23.26893904 -20 19 C-21.23766421 14.89705839 -21.29747511 11.89242532 -19.9375 7.8125 C-14.33224913 -0.32415449 -9.63019875 -1.00915256 0 0 Z " fill="#8D9789" transform="translate(189,248)"/>
<path d="M0 0 C0.96164062 0.01546875 1.92328125 0.0309375 2.9140625 0.046875 C5.375 0.25 5.375 0.25 7.375 1.25 C7.375 3.23 7.375 5.21 7.375 7.25 C6.715 7.25 6.055 7.25 5.375 7.25 C4.776875 6.59 4.17875 5.93 3.5625 5.25 C1.52730922 2.98417974 1.52730922 2.98417974 -1.375 3 C-2.48875 3.12375 -2.48875 3.12375 -3.625 3.25 C-3.955 4.57 -4.285 5.89 -4.625 7.25 C-3.77035156 7.74371094 -2.91570312 8.23742187 -2.03515625 8.74609375 C-0.93042969 9.38675781 0.17429687 10.02742188 1.3125 10.6875 C2.41464844 11.32558594 3.51679688 11.96367187 4.65234375 12.62109375 C7.375 14.25 7.375 14.25 8.375 15.25 C8.96488764 21.50280899 8.96488764 21.50280899 6.5 24.625 C2.68818506 27.53991731 0.17162025 27.56977468 -4.625 27.25 C-8.0625 25.75 -8.0625 25.75 -10.625 24.25 C-10.625 22.27 -10.625 20.29 -10.625 18.25 C-7.625 19.25 -7.625 19.25 -6.4375 21.25 C-3.60701705 24.37329153 -0.74421158 23.97988777 3.375 24.25 C3.67128737 21.40465796 3.67128737 21.40465796 2.375 18.25 C-0.0637572 16.72142183 -2.51916273 15.61712261 -5.1796875 14.5234375 C-7.91319668 13.09991675 -9.09593268 11.90681796 -10.625 9.25 C-10.55550476 5.84473331 -10.39213371 3.99957916 -7.91796875 1.58203125 C-5.07784677 -0.06785222 -3.26315498 -0.08795566 0 0 Z " fill="#6D7F69" transform="translate(405.625,247.75)"/>
<path d="M0 0 C2.6015625 -0.5 2.6015625 -0.5 6 0 C8.54901966 2.36003267 10.41978912 5.14201274 12.375 8 C12.92027344 8.763125 13.46554688 9.52625 14.02734375 10.3125 C15.36923962 12.19586263 16.68700805 14.09637413 18 16 C18.33 11.38 18.66 6.76 19 2 C18.34 2 17.68 2 17 2 C17 1.34 17 0.68 17 0 C18.98 0 20.96 0 23 0 C22.67 8.91 22.34 17.82 22 27 C18.37460467 25.18730233 17.31154934 24.50829155 14.984375 21.5234375 C14.45585937 20.853125 13.92734375 20.1828125 13.3828125 19.4921875 C12.84398437 18.79351562 12.30515625 18.09484375 11.75 17.375 C10.91855469 16.31539063 10.91855469 16.31539063 10.0703125 15.234375 C8.70686097 13.49479891 7.35252996 11.74808117 6 10 C5.67 14.62 5.34 19.24 5 24 C4.67 24 4.34 24 4 24 C4 18.06 4 12.12 4 6 C4.66 6 5.32 6 6 6 C5.67 4.68 5.34 3.36 5 2 C4.34 2 3.68 2 3 2 C3 9.26 3 16.52 3 24 C2.67 24 2.34 24 2 24 C1.97494385 23.37955811 1.9498877 22.75911621 1.92407227 22.11987305 C1.80803279 19.30887603 1.68534241 16.49820759 1.5625 13.6875 C1.52318359 12.71103516 1.48386719 11.73457031 1.44335938 10.72851562 C1.40146484 9.79072266 1.35957031 8.85292969 1.31640625 7.88671875 C1.27974854 7.02264404 1.24309082 6.15856934 1.20532227 5.26831055 C1.07252646 2.8352174 1.07252646 2.8352174 0 0 Z " fill="#566852" transform="translate(217,248)"/>
<path d="M0 0 C1.91723633 0.1394043 1.91723633 0.1394043 4 1 C5.2644043 3.06958008 5.2644043 3.06958008 6.32421875 5.76953125 C6.90719727 7.22649414 6.90719727 7.22649414 7.50195312 8.71289062 C7.89318359 9.73576172 8.28441406 10.75863281 8.6875 11.8125 C9.29174805 13.3294043 9.29174805 13.3294043 9.90820312 14.87695312 C13.06902505 22.88754536 13.06902505 22.88754536 14 27 C11.69 27 9.38 27 7 27 C5 20.25 5 20.25 5 18 C2.03 18.33 -0.94 18.66 -4 19 C-4.59732819 21.76264289 -5 24.16032769 -5 27 C-6.98 27 -8.96 27 -11 27 C-11 26.01 -11 25.02 -11 24 C-10.34 24 -9.68 24 -9 24 C-8.608125 22.80375 -8.21625 21.6075 -7.8125 20.375 C-6.37477819 16.06871362 -4.88776777 11.78042651 -3.375 7.5 C-2.94960938 6.2934375 -2.52421875 5.086875 -2.0859375 3.84375 C-1 1 -1 1 0 0 Z M0 7 C-1.485 10.96 -1.485 10.96 -3 15 C-1.02 15 0.96 15 3 15 C2.34 12.36 1.68 9.72 1 7 C0.67 7 0.34 7 0 7 Z " fill="#959F92" transform="translate(63,248)"/>
<path d="M0 0 C13.34050288 -0.4940927 13.34050288 -0.4940927 16.4296875 1.8203125 C18.51369161 4.71303462 18.45492286 6.51225811 18 10 C17.34 10.66 16.68 11.32 16 12 C15.01 12 14.02 12 13 12 C13.33 12.99 13.66 13.98 14 15 C13.01 15.495 13.01 15.495 12 16 C12 15.34 12 14.68 12 14 C10.02 14 8.04 14 6 14 C6.0721875 14.68707031 6.144375 15.37414062 6.21875 16.08203125 C6.3115625 16.98308594 6.404375 17.88414062 6.5 18.8125 C6.5928125 19.70582031 6.685625 20.59914063 6.78125 21.51953125 C7 24 7 24 7 27 C4.69 27 2.38 27 0 27 C0 18.09 0 9.18 0 0 Z M6 2 C6 4.97 6 7.94 6 11 C7.98 11 9.96 11 12 11 C13.01540112 6.89776415 13.01540112 6.89776415 12 3 C8.97065509 2.34227572 8.97065509 2.34227572 6 2 Z " fill="#3B5037" transform="translate(353,248)"/>
<path d="M0 0 C0 1.98 0 3.96 0 6 C-0.99 5.67 -1.98 5.34 -3 5 C-3 4.34 -3 3.68 -3 3 C-9.51945052 1.64189457 -9.51945052 1.64189457 -15.5625 3.5625 C-18.07993839 7.83119987 -18.21601447 10.84137695 -17.3125 15.6875 C-15.92291783 19.19454071 -15.39449921 20.44036523 -12 22 C-8.5 22.58333333 -8.5 22.58333333 -5 22 C-2.68622853 20.10415891 -2.68622853 20.10415891 -1 18 C-0.34 18 0.32 18 1 18 C1 19.98 1 21.96 1 24 C-5.25034674 26.50013869 -10.39090566 26.7827283 -16.75 24.875 C-20.61320225 22.64622947 -22.09904455 21.03002555 -24 17 C-24.84721929 12.62415606 -24.37192505 9.74385009 -22.375 5.75 C-16.19417209 -1.40674811 -8.97832281 -2.99277427 0 0 Z " fill="#7B8D78" transform="translate(273,249)"/>
<path d="M0 0 C2.64 0 5.28 0 8 0 C8.27714844 0.91523438 8.55429687 1.83046875 8.83984375 2.7734375 C9.20207031 3.96195313 9.56429688 5.15046875 9.9375 6.375 C10.29714844 7.55835938 10.65679687 8.74171875 11.02734375 9.9609375 C11.87576274 12.87926818 11.87576274 12.87926818 13 15 C13.039992 16.99960012 13.04346799 19.00047242 13 21 C13.66 21 14.32 21 15 21 C14.67 22.98 14.34 24.96 14 27 C11 26 11 26 9.94091797 24.22167969 C9.62783691 23.46274414 9.31475586 22.70380859 8.9921875 21.921875 C8.64542969 21.09042969 8.29867188 20.25898438 7.94140625 19.40234375 C7.58949219 18.52707031 7.23757813 17.65179688 6.875 16.75 C6.51535156 15.89019531 6.15570313 15.03039062 5.78515625 14.14453125 C4.11876229 10.09400809 2.76524335 6.32778075 2 2 C1.34 2 0.68 2 0 2 C0 1.34 0 0.68 0 0 Z " fill="#5D6F58" transform="translate(300,248)"/>
<path d="M0 0 C0.33 0 0.66 0 1 0 C1.09796875 0.89203125 1.1959375 1.7840625 1.296875 2.703125 C1.44640625 3.87359375 1.5959375 5.0440625 1.75 6.25 C1.88921875 7.41015625 2.0284375 8.5703125 2.171875 9.765625 C3.09978131 13.38971192 4.03947721 14.76595236 7 17 C10.14522722 17.31452272 12.15916359 17.42041821 15 16 C15.68931344 13.65092125 15.68931344 13.65092125 16.125 10.9375 C16.29257812 10.01839844 16.46015625 9.09929687 16.6328125 8.15234375 C16.75398438 7.44207031 16.87515625 6.73179687 17 6 C17.33 6 17.66 6 18 6 C18.12375 6.804375 18.2475 7.60875 18.375 8.4375 C18.58125 9.283125 18.7875 10.12875 19 11 C19.66 11.33 20.32 11.66 21 12 C21 8.7 21 5.4 21 2 C23.31566913 6.63133825 23.27250999 8.07962803 22 13 C19.81333542 16.58188713 17.12144774 19.8224435 13 21 C6.56270919 21.63317615 3.29370228 20.70559159 -2 17 C-2.66 16.01 -3.32 15.02 -4 14 C-3 11 -3 11 -1 9 C-0.53993654 6.79749008 -0.53993654 6.79749008 -0.375 4.375 C-0.30023438 3.55773437 -0.22546875 2.74046875 -0.1484375 1.8984375 C-0.09945313 1.27195313 -0.05046875 0.64546875 0 0 Z " fill="#7E8C7B" transform="translate(420,254)"/>
<path d="M0 0 C1.56047445 0.00015913 3.12095416 0.00585397 4.68139648 0.01586914 C5.91115456 0.01799156 5.91115456 0.01799156 7.16575623 0.02015686 C9.79470406 0.0257725 12.42356797 0.0383276 15.05249023 0.05102539 C16.8304838 0.05603838 18.60847869 0.06060163 20.38647461 0.06469727 C24.75434569 0.07574701 29.12215371 0.09302208 33.48999023 0.11352539 C33.48999023 0.44352539 33.48999023 0.77352539 33.48999023 1.11352539 C26.22999023 1.44352539 18.96999023 1.77352539 11.48999023 2.11352539 C11.48999023 17.29352539 11.48999023 32.47352539 11.48999023 48.11352539 C11.15999023 48.11352539 10.82999023 48.11352539 10.48999023 48.11352539 C10.48999023 33.26352539 10.48999023 18.41352539 10.48999023 3.11352539 C1.80149743 4.53831816 1.80149743 4.53831816 -2.51000977 10.11352539 C-3.17000977 10.11352539 -3.83000977 10.11352539 -4.51000977 10.11352539 C-4.53690193 8.63445647 -4.55635598 7.15525056 -4.57250977 5.67602539 C-4.58411133 4.85231445 -4.59571289 4.02860352 -4.60766602 3.17993164 C-4.43894421 -0.39022184 -3.70104658 0.11970416 0 0 Z " fill="#9BA899" transform="translate(464.510009765625,224.886474609375)"/>
<path d="M0 0 C1.32 0.33 2.64 0.66 4 1 C4 2.32 4 3.64 4 5 C3.34 5 2.68 5 2 5 C2 10.94 2 16.88 2 23 C2.99 23 3.98 23 5 23 C5 23.99 5 24.98 5 26 C0.38 26 -4.24 26 -9 26 C-10.19630282 15.89788732 -10.19630282 15.89788732 -9 12 C-8.814375 11.2575 -8.62875 10.515 -8.4375 9.75 C-8.293125 9.1725 -8.14875 8.595 -8 8 C-7.16260219 10.1234016 -6.33019717 12.2487728 -5.5 14.375 C-5.0359375 15.55835938 -4.571875 16.74171875 -4.09375 17.9609375 C-3 21 -3 21 -3 23 C-1.68 23 -0.36 23 1 23 C0.67 15.41 0.34 7.82 0 0 Z " fill="#7D8B7B" transform="translate(219,249)"/>
<path d="M0 0 C3.96 0 7.92 0 12 0 C12 0.99 12 1.98 12 3 C10.49759766 3.52013672 10.49759766 3.52013672 8.96484375 4.05078125 C4.20483603 6.09078456 1.07862016 9.47790021 -2.4375 13.1875 C-3.39172852 14.16879883 -3.39172852 14.16879883 -4.36523438 15.16992188 C-5.91972888 16.7711681 -7.46404153 18.38099948 -9 20 C-8.34 20.66 -7.68 21.32 -7 22 C-9.64 22 -12.28 22 -15 22 C-14.195625 21.05125 -13.39125 20.1025 -12.5625 19.125 C-12.02496094 18.49078125 -11.48742187 17.8565625 -10.93359375 17.203125 C-9.52453424 15.59765113 -8.07293539 14.02922015 -6.59765625 12.484375 C-5.78167969 11.62328125 -4.96570312 10.7621875 -4.125 9.875 C-3.34382813 9.06804687 -2.56265625 8.26109375 -1.7578125 7.4296875 C0.48846348 4.8246484 0.48846348 4.8246484 0 0 Z " fill="#9DA89B" transform="translate(32,225)"/>
<path d="M0 0 C4.62 0 9.24 0 14 0 C13.34 1.65 12.68 3.3 12 5 C11.72967623 7.31162296 11.72967623 7.31162296 11.8046875 9.64453125 C11.81113281 10.48564453 11.81757813 11.32675781 11.82421875 12.19335938 C11.84097656 13.05767578 11.85773437 13.92199219 11.875 14.8125 C11.88853516 16.13797852 11.88853516 16.13797852 11.90234375 17.49023438 C11.92580363 19.66027359 11.96167135 21.83017247 12 24 C12.99 23.34 13.98 22.68 15 22 C15 22.66 15 23.32 15 24 C16.32 24.33 17.64 24.66 19 25 C18.236875 25.28875 17.47375 25.5775 16.6875 25.875 C13.84970692 26.96269013 13.84970692 26.96269013 11 29 C9.73276563 26.46553127 9.87058672 24.67773046 9.8671875 21.84375 C9.86525391 20.31041016 9.86525391 20.31041016 9.86328125 18.74609375 C9.86714844 17.67488281 9.87101563 16.60367188 9.875 15.5 C9.87113281 14.42878906 9.86726562 13.35757813 9.86328125 12.25390625 C9.86457031 11.23167969 9.86585937 10.20945313 9.8671875 9.15625 C9.86831543 8.21587891 9.86944336 7.27550781 9.87060547 6.30664062 C10 4 10 4 11 2 C8.36 2.33 5.72 2.66 3 3 C3.33 3.66 3.66 4.32 4 5 C4.08705146 7.98970289 4.11550145 10.95584955 4.09765625 13.9453125 C4.0962413 14.8303244 4.09482635 15.7153363 4.09336853 16.62716675 C4.0877614 19.45981191 4.07520771 22.29237864 4.0625 25.125 C4.05748592 27.04296761 4.05292285 28.96093646 4.04882812 30.87890625 C4.03778966 35.58596782 4.02052025 40.2929706 4 45 C3.67 45 3.34 45 3 45 C2.505 24.21 2.505 24.21 2 3 C1.34 3 0.68 3 0 3 C0 2.01 0 1.02 0 0 Z " fill="#768574" transform="translate(2,225)"/>
<path d="M0 0 C2.97 0 5.94 0 9 0 C9 0.33 9 0.66 9 1 C7.35 1 5.7 1 4 1 C4.03029297 1.65073486 4.06058594 2.30146973 4.09179688 2.97192383 C4.22857717 5.91874998 4.36430066 8.86562388 4.5 11.8125 C4.54769531 12.83666016 4.59539062 13.86082031 4.64453125 14.91601562 C4.68964844 15.89892578 4.73476562 16.88183594 4.78125 17.89453125 C4.82314453 18.80050049 4.86503906 19.70646973 4.90820312 20.63989258 C4.97765497 22.42550689 5 24.21303553 5 26 C2.69 26 0.38 26 -2 26 C-2 25.01 -2 24.02 -2 23 C-1.34 23 -0.68 23 0 23 C0 15.41 0 7.82 0 0 Z " fill="#647460" transform="translate(82,249)"/>
<path d="M0 0 C1.92578125 0.37109375 1.92578125 0.37109375 4 1 C6.32439652 5.03710974 6.704825 9.42478747 7 14 C6.01 15.485 6.01 15.485 5 17 C2.6171875 17.29296875 2.6171875 17.29296875 -0.125 17.1875 C-1.03507812 17.16042969 -1.94515625 17.13335937 -2.8828125 17.10546875 C-3.58148438 17.07066406 -4.28015625 17.03585937 -5 17 C-4.53444296 10.59859065 -2.85288164 5.73230171 0 0 Z M0 7 C-1.485 10.96 -1.485 10.96 -3 15 C-1.02 15 0.96 15 3 15 C2.34 12.36 1.68 9.72 1 7 C0.67 7 0.34 7 0 7 Z " fill="#697B64" transform="translate(63,248)"/>
<path d="M0 0 C0.33 0 0.66 0 1 0 C0.88016226 6.86043252 0.75544918 13.72076525 0.62768555 20.58105469 C0.58495336 22.90427752 0.54324991 25.22751955 0.50268555 27.55078125 C0.29419536 39.45273978 0.04471717 51.3490919 -0.47265625 63.2421875 C-0.50975204 64.12907257 -0.54684784 65.01595764 -0.58506775 65.92971802 C-0.80820224 70.68096029 -1.24110697 75.30382872 -2 80 C-3.65 79.01 -5.3 78.02 -7 77 C-5.02 76.505 -5.02 76.505 -3 76 C-2.97716446 75.21010178 -2.95432892 74.42020355 -2.93080139 73.60636902 C-2.71374664 66.11917348 -2.49341455 58.63208461 -2.26950932 51.14509106 C-2.15454308 47.29705345 -2.04079197 43.44898834 -1.92993164 39.60083008 C-1.82266271 35.87895467 -1.71205331 32.15719148 -1.59924126 28.43548012 C-1.55702055 27.02394344 -1.51595228 25.61237176 -1.4761219 24.20076561 C-1.24666631 16.09869948 -0.86251584 8.06109687 0 0 Z " fill="#EAE0B5" transform="translate(248,94)"/>
<path d="M0 0 C1.60875 -0.00386719 1.60875 -0.00386719 3.25 -0.0078125 C6 0.125 6 0.125 8 1.125 C8 3.105 8 5.085 8 7.125 C7.01 6.795 6.02 6.465 5 6.125 C5 5.465 5 4.805 5 4.125 C3.58696762 3.8743981 2.16920526 3.65038079 0.75 3.4375 C-0.03890625 3.30988281 -0.8278125 3.18226563 -1.640625 3.05078125 C-4.07252568 2.96216126 -4.07252568 2.96216126 -6.27734375 4.265625 C-8.22445094 6.02539305 -8.22445094 6.02539305 -8.42578125 8.68359375 C-8.38839844 9.63363281 -8.35101563 10.58367187 -8.3125 11.5625 C-8.28800781 12.50996094 -8.26351562 13.45742188 -8.23828125 14.43359375 C-8.03038399 16.78181038 -7.65645306 18.86744192 -7 21.125 C-7.99 20.795 -8.98 20.465 -10 20.125 C-10 16.495 -10 12.865 -10 9.125 C-10.99 9.125 -11.98 9.125 -13 9.125 C-13 12.425 -13 15.725 -13 19.125 C-15.33032213 14.46435574 -15.34176857 13.07277161 -14 8.125 C-9.95872116 2.17501221 -7.26390232 -0.0174613 0 0 Z " fill="#7F8A7C" transform="translate(183,247.875)"/>
<path d="M0 0 C2.24940295 -0.08119503 4.49964871 -0.13927819 6.75 -0.1875 C8.00296875 -0.22230469 9.2559375 -0.25710937 10.546875 -0.29296875 C14.15780496 0.01338843 15.58104807 0.33915287 18 3 C18.25 6.6875 18.25 6.6875 18 10 C16.02 10.99 16.02 10.99 14 12 C14 12.66 14 13.32 14 14 C13.34 14 12.68 14 12 14 C12 13.34 12 12.68 12 12 C9.69 12 7.38 12 5 12 C5 8.37 5 4.74 5 1 C3.35 1.33 1.7 1.66 0 2 C0 1.34 0 0.68 0 0 Z M6 2 C6 4.97 6 7.94 6 11 C8.41645782 11.16687448 8.41645782 11.16687448 11 11 C11.66 10.34 12.32 9.68 13 9 C12.90888062 6.46048456 12.90888062 6.46048456 12 4 C9.18490007 1.7226499 9.18490007 1.7226499 6 2 Z " fill="#8F9D8C" transform="translate(444,248)"/>
<path d="M0 0 C7.92 0 15.84 0 24 0 C24 1.98 24 3.96 24 6 C23.34 6 22.68 6 22 6 C22.33 4.35 22.66 2.7 23 1 C20.39491364 1.11391632 17.79154454 1.24065548 15.1875 1.375 C14.44951172 1.4059375 13.71152344 1.436875 12.95117188 1.46875 C9.18106885 1.67346148 7.20349259 1.86433827 4 4 C2.95135533 6.00156589 2.95135533 6.00156589 2.17578125 8.3515625 C1.86962891 9.20234375 1.56347656 10.053125 1.24804688 10.9296875 C0.93931641 11.81914062 0.63058594 12.70859375 0.3125 13.625 C-0.00783203 14.5221875 -0.32816406 15.419375 -0.65820312 16.34375 C-1.44784843 18.55947116 -2.22799924 20.77808235 -3 23 C-3.33 22.34 -3.66 21.68 -4 21 C-4.66 21 -5.32 21 -6 21 C-6 20.01 -6 19.02 -6 18 C-5.34 18 -4.68 18 -4 18 C-3.896875 17.34 -3.79375 16.68 -3.6875 16 C-2.96410873 12.84338355 -1.87552409 10.03952129 -0.62109375 7.0625 C0.24028832 4.5610594 0.24028832 4.5610594 0 0 Z " fill="#99A196" transform="translate(319,248)"/>
<path d="M0 0 C1.98 0 3.96 0 6 0 C5.91874075 3.23016726 5.80593395 6.45849888 5.6875 9.6875 C5.65366211 11.05551758 5.65366211 11.05551758 5.61914062 12.45117188 C5.26972279 21.18661784 5.26972279 21.18661784 2 25 C-1.73159669 26.24386556 -4.18015204 25.77811718 -8 25 C-8.33 24.34 -8.66 23.68 -9 23 C-5.7 23 -2.4 23 1 23 C1.33 16.07 1.66 9.14 2 2 C1.34 2 0.68 2 0 2 C0 1.34 0 0.68 0 0 Z " fill="#848F81" transform="translate(111,248)"/>
<path d="M0 0 C2.24893954 -0.10823773 4.49937575 -0.18569645 6.75 -0.25 C8.00296875 -0.29640625 9.2559375 -0.3428125 10.546875 -0.390625 C14 0 14 0 16.42578125 1.8203125 C18.52555945 4.7276977 18.53343469 6.49457203 18 10 C17.01 10.66 16.02 11.32 15 12 C15 11.34 15 10.68 15 10 C14.01 10.66 13.02 11.32 12 12 C9.66800612 12.07905064 7.33167378 12.08798769 5 12 C5 8.37 5 4.74 5 1 C3.35 1.33 1.7 1.66 0 2 C0 1.34 0 0.68 0 0 Z M6 2 C6 4.97 6 7.94 6 11 C7.98 11 9.96 11 12 11 C13.01540112 6.89776415 13.01540112 6.89776415 12 3 C8.97065509 2.34227572 8.97065509 2.34227572 6 2 Z " fill="#8F9A8C" transform="translate(353,248)"/>
<path d="M0 0 C9.57 0 19.14 0 29 0 C29 0.66 29 1.32 29 2 C26.69 2 24.38 2 22 2 C21.67 3.32 21.34 4.64 21 6 C20.01 5.67 19.02 5.34 18 5 C18 4.34 18 3.68 18 3 C13.545 2.01 13.545 2.01 9 1 C9 8.59 9 16.18 9 24 C8.67 24 8.34 24 8 24 C8 16.74 8 9.48 8 2 C3.05536365 3.33563616 3.05536365 3.33563616 2 6 C1.34 6 0.68 6 0 6 C0 4.02 0 2.04 0 0 Z " fill="#899487" transform="translate(73,248)"/>
<path d="M0 0 C2.6875 -0.375 2.6875 -0.375 6 0 C8.9375 2.6875 8.9375 2.6875 11 6 C10.8125 8.875 10.8125 8.875 10 11 C8.68 10.67 7.36 10.34 6 10 C5.67 14.62 5.34 19.24 5 24 C4.67 24 4.34 24 4 24 C4 18.06 4 12.12 4 6 C4.66 6 5.32 6 6 6 C5.67 4.68 5.34 3.36 5 2 C4.34 2 3.68 2 3 2 C3 9.26 3 16.52 3 24 C2.67 24 2.34 24 2 24 C1.97494385 23.37955811 1.9498877 22.75911621 1.92407227 22.11987305 C1.80803279 19.30887603 1.68534241 16.49820759 1.5625 13.6875 C1.52318359 12.71103516 1.48386719 11.73457031 1.44335938 10.72851562 C1.40146484 9.79072266 1.35957031 8.85292969 1.31640625 7.88671875 C1.27974854 7.02264404 1.24309082 6.15856934 1.20532227 5.26831055 C1.07252646 2.8352174 1.07252646 2.8352174 0 0 Z " fill="#8E9A8A" transform="translate(217,248)"/>
<path d="M0 0 C0.99 0 1.98 0 3 0 C3 2.97 3 5.94 3 9 C6.46941546 8.54177532 9.67395049 8.10868317 13 7 C13 9.31 13 11.62 13 14 C9.7 13.34 6.4 12.68 3 12 C3 15.3 3 18.6 3 22 C2.01 22 1.02 22 0 22 C0 14.74 0 7.48 0 0 Z " fill="#7A8A77" transform="translate(378,250)"/>
<path d="M0 0 C0.66 0 1.32 0 2 0 C2 3.63 2 7.26 2 11 C2.66 11 3.32 11 4 11 C5.32 13.64 6.64 16.28 8 19 C4.29320509 19.42122669 2.60566051 19.47815304 -0.375 17.125 C-2.63443308 12.77993639 -2.67325176 8.81453295 -2 4 C-0.9765625 1.69140625 -0.9765625 1.69140625 0 0 Z " fill="#7C8B78" transform="translate(278,254)"/>
<path d="M0 0 C1.8671875 1.27734375 1.8671875 1.27734375 3 3 C3 4.32 3 5.64 3 7 C2.01 7 1.02 7 0 7 C-0.4125 6.525625 -0.825 6.05125 -1.25 5.5625 C-3.96170898 3.14133127 -6.45087931 3.12675431 -10 3 C-12.91607609 5.12644978 -13.53425487 7.22027587 -14.1875 10.6875 C-14.34605469 11.49574219 -14.50460938 12.30398438 -14.66796875 13.13671875 C-14.77753906 13.75160156 -14.88710937 14.36648438 -15 15 C-15.33 15 -15.66 15 -16 15 C-16.33 12.36 -16.66 9.72 -17 7 C-17.99 7.495 -17.99 7.495 -19 8 C-15.60849636 -0.63291835 -8.35421711 -1.32096595 0 0 Z " fill="#889386" transform="translate(162,248)"/>
<path d="M0 0 C3.77524481 -0.43898196 5.59284199 -0.24783531 8.875 1.75 C12.07055903 6.63732558 11.40769141 11.31949975 11 17 C10.01 16.67 9.02 16.34 8 16 C7.2265625 14.109375 7.2265625 14.109375 6.625 11.75 C5.31609796 7.34732949 3.45871342 5.08479846 0 2 C0 1.34 0 0.68 0 0 Z " fill="#687865" transform="translate(430,249)"/>
<path d="M0 0 C1.98 0 3.96 0 6 0 C5.67 8.91 5.34 17.82 5 27 C4.34 26.67 3.68 26.34 3 26 C3.04125 25.2575 3.0825 24.515 3.125 23.75 C3.22427789 21.06222156 3.22427789 21.06222156 1.96875 19.3125 C0.56008532 15.94988107 1.0401223 12.79300611 1.375 9.25 C1.43171875 8.55261719 1.4884375 7.85523438 1.546875 7.13671875 C1.68767872 5.42360688 1.84245972 3.71165389 2 2 C1.34 2 0.68 2 0 2 C0 1.34 0 0.68 0 0 Z " fill="#919B8F" transform="translate(234,248)"/>
<path d="M0 0 C0 1.98 0 3.96 0 6 C-0.99 5.67 -1.98 5.34 -3 5 C-3 4.34 -3 3.68 -3 3 C-9.53971258 1.59851205 -9.53971258 1.59851205 -15.5 3.6875 C-16.83869263 5.75131781 -18.03106717 7.73915674 -19 10 C-19 8.68 -19 7.36 -19 6 C-19.99 6.33 -20.98 6.66 -22 7 C-18.67138365 -2.32012577 -8.15224993 -2.71741664 0 0 Z " fill="#7E897B" transform="translate(273,249)"/>
<path d="M0 0 C0.33 0 0.66 0 1 0 C1.33 6.27 1.66 12.54 2 19 C2.33 16.36 2.66 13.72 3 11 C4.65 11 6.3 11 8 11 C7.01 11.33 6.02 11.66 5 12 C5.14148989 13.6045556 5.28835686 15.20863767 5.4375 16.8125 C5.51871094 17.70582031 5.59992188 18.59914063 5.68359375 19.51953125 C5.93489767 22.12743559 5.93489767 22.12743559 7 25 C4.36 25 1.72 25 -1 25 C-0.67 16.75 -0.34 8.5 0 0 Z " fill="#798976" transform="translate(445,250)"/>
<path d="M0 0 C1.98 0 3.96 0 6 0 C5.67 8.91 5.34 17.82 5 27 C4.34 26.67 3.68 26.34 3 26 C3.33 23.69 3.66 21.38 4 19 C3.01 18.67 2.02 18.34 1 18 C1.33 12.72 1.66 7.44 2 2 C1.34 2 0.68 2 0 2 C0 1.34 0 0.68 0 0 Z " fill="#959E92" transform="translate(134,248)"/>
<path d="M0 0 C0.66 0 1.32 0 2 0 C3.25664978 2.90600261 4 4.79604584 4 8 C0.33569986 10.34515209 -2.72175983 10.36881381 -7 10 C-10.4375 8.5 -10.4375 8.5 -13 7 C-13 5.02 -13 3.04 -13 1 C-10 2 -10 2 -8.8125 4 C-5.98201705 7.12329153 -3.11921158 6.72988777 1 7 C0.67 4.69 0.34 2.38 0 0 Z " fill="#848E82" transform="translate(408,265)"/>
<path d="M0 0 C0.66 0.33 1.32 0.66 2 1 C1.28714844 1.7734375 0.57429688 2.546875 -0.16015625 3.34375 C-1.12763819 4.39580204 -2.09508364 5.44788765 -3.0625 6.5 C-3.56330078 7.04301758 -4.06410156 7.58603516 -4.58007812 8.14550781 C-8.02527429 11.89443105 -11.34981514 15.72027262 -14.5625 19.671875 C-16 21 -16 21 -19 21 C-17.36470886 17.03536974 -14.63226521 14.15726466 -11.75 11.0625 C-11.28464844 10.55009766 -10.81929688 10.03769531 -10.33984375 9.50976562 C-7.11634153 6.01541818 -3.7063649 2.97715406 0 0 Z " fill="#697B65" transform="translate(282,158)"/>
<path d="M0 0 C0.33 0 0.66 0 1 0 C1.91160286 7.35793733 2.11459026 14.58982977 2 22 C2.66 22 3.32 22 4 22 C4 18.37 4 14.74 4 11 C5.32 11.33 6.64 11.66 8 12 C7.01 12 6.02 12 5 12 C5.0721875 12.68707031 5.144375 13.37414062 5.21875 14.08203125 C5.3115625 14.98308594 5.404375 15.88414062 5.5 16.8125 C5.5928125 17.70582031 5.685625 18.59914063 5.78125 19.51953125 C6 22 6 22 6 25 C3.69 25 1.38 25 -1 25 C-0.67 16.75 -0.34 8.5 0 0 Z " fill="#7B8978" transform="translate(354,250)"/>
<path d="M0 0 C1.32 0 2.64 0 4 0 C4 3.63 4 7.26 4 11 C6.31 11 8.62 11 11 11 C11 11.66 11 12.32 11 13 C11.66 13.33 12.32 13.66 13 14 C9.7 13.34 6.4 12.68 3 12 C3 15.63 3 19.26 3 23 C0.91254955 19.86882433 0.72346004 18.93053776 0.5859375 15.33203125 C0.54726563 14.43935547 0.50859375 13.54667969 0.46875 12.62695312 C0.4378125 11.69818359 0.406875 10.76941406 0.375 9.8125 C0.33632813 8.87212891 0.29765625 7.93175781 0.2578125 6.96289062 C0.16356813 4.6421229 0.07795975 2.32136252 0 0 Z " fill="#3C5238" transform="translate(445,249)"/>
<path d="M0 0 C0.96164062 0.01546875 1.92328125 0.0309375 2.9140625 0.046875 C5.375 0.25 5.375 0.25 7.375 1.25 C7.375 3.23 7.375 5.21 7.375 7.25 C6.715 7.25 6.055 7.25 5.375 7.25 C4.776875 6.59 4.17875 5.93 3.5625 5.25 C1.53870851 3.050988 1.53870851 3.050988 -1.1875 2.75 C-3.78718963 3.0331009 -3.78718963 3.0331009 -5.4375 5.25 C-5.829375 5.91 -6.22125 6.57 -6.625 7.25 C-6.955 6.26 -7.285 5.27 -7.625 4.25 C-7.955 6.56 -8.285 8.87 -8.625 11.25 C-9.285 10.59 -9.945 9.93 -10.625 9.25 C-10.4833705 5.92170683 -10.342851 3.95632587 -7.921875 1.57421875 C-5.08009083 -0.06415682 -3.25931211 -0.08785208 0 0 Z " fill="#8F9A8D" transform="translate(405.625,247.75)"/>
<path d="M0 0 C0.04898438 0.59167969 0.09796875 1.18335938 0.1484375 1.79296875 C0.56456867 6.19104472 1.04965595 9.96928897 3 14 C2.01 14.33 1.02 14.66 0 15 C0 14.01 0 13.02 0 12 C-0.66 12 -1.32 12 -2 12 C-1.67 13.32 -1.34 14.64 -1 16 C-3.3103656 14.1969369 -3.95140866 13.32060756 -4.3984375 10.37109375 C-4.39070312 9.40300781 -4.38296875 8.43492187 -4.375 7.4375 C-4.38273438 6.46683594 -4.39046875 5.49617188 -4.3984375 4.49609375 C-4.26695312 3.67238281 -4.13546875 2.84867187 -4 2 C-1 0 -1 0 0 0 Z " fill="#808F7B" transform="translate(146,254)"/>
<path d="M0 0 C0.33 0 0.66 0 1 0 C1 2.31 1 4.62 1 7 C1.66 7 2.32 7 3 7 C1.96008872 10.01574271 1.03085171 10.97991051 -1.6875 12.75 C-5.41253523 14.15567367 -8.04919945 14.37271703 -12 14 C-12.99 13.34 -13.98 12.68 -15 12 C-10.50343896 9.75171948 -6.92127034 9.83317728 -2 10 C-1.34 6.7 -0.68 3.4 0 0 Z " fill="#8B9587" transform="translate(297,261)"/>
<path d="M0 0 C3.79738964 2.35700047 5.2939676 4.90552223 7 9 C7 9.99 7 10.98 7 12 C4.69 12 2.38 12 0 12 C-1.16063604 7.74433453 -0.76173392 4.3164922 0 0 Z " fill="#7B8B77" transform="translate(70,263)"/>
<path d="M0 0 C2.31566913 4.63133825 2.27250999 6.07962803 1 11 C-0.77591545 13.96869448 -2.76075224 16.40036399 -5.9375 17.9375 C-8.71838376 18.0217692 -11.28151621 17.5560535 -14 17 C-14 16.67 -14 16.34 -14 16 C-11.36 15.34 -8.72 14.68 -6 14 C-5.34 10.7 -4.68 7.4 -4 4 C-3.67 4 -3.34 4 -3 4 C-2.87625 4.804375 -2.7525 5.60875 -2.625 6.4375 C-2.41875 7.283125 -2.2125 8.12875 -2 9 C-1.34 9.33 -0.68 9.66 0 10 C0 6.7 0 3.4 0 0 Z " fill="#869283" transform="translate(441,256)"/>
<path d="M0 0 C0 4.29 0 8.58 0 13 C-1.32 13 -2.64 13 -4 13 C-5.58791315 9.82417369 -5.41019741 6.45838847 -5 3 C-3.38450752 0.65019276 -2.86103007 0 0 0 Z " fill="#374E32" transform="translate(254,255)"/>
<path d="M0 0 C0.99 0 1.98 0 3 0 C3 3.63 3 7.26 3 11 C4.32 11.33 5.64 11.66 7 12 C7 12.99 7 13.98 7 15 C7.66 15.33 8.32 15.66 9 16 C5.82128678 16.35319036 4.44157891 16.3327841 1.84375 14.375 C-0.53716395 11.30806 -0.41663162 9.58252732 -0.25 5.75 C-0.21390625 4.67234375 -0.1778125 3.5946875 -0.140625 2.484375 C-0.09421875 1.66453125 -0.0478125 0.8446875 0 0 Z " fill="#3B5135" transform="translate(170,257)"/>
<path d="M0 0 C0.99 0 1.98 0 3 0 C4.24377393 2.48754786 4.13306235 4.22655301 4.125 7 C4.12757813 7.886875 4.13015625 8.77375 4.1328125 9.6875 C4 12 4 12 3 14 C2.01 14 1.02 14 0 14 C-0.19393875 11.85473901 -0.37998676 9.70876323 -0.5625 7.5625 C-0.71912109 5.77005859 -0.71912109 5.77005859 -0.87890625 3.94140625 C-0.91886719 2.97074219 -0.95882813 2.00007813 -1 1 C-0.67 0.67 -0.34 0.34 0 0 Z " fill="#576B53" transform="translate(298,254)"/>
<path d="M0 0 C1.65 0 3.3 0 5 0 C4.67 6.27 4.34 12.54 4 19 C3.34 19.33 2.68 19.66 2 20 C1.13580777 17.40742331 0.82419068 15.65962293 0.68359375 12.98828125 C0.64169922 12.23095703 0.59980469 11.47363281 0.55664062 10.69335938 C0.51732422 9.90767578 0.47800781 9.12199219 0.4375 8.3125 C0.39431641 7.51521484 0.35113281 6.71792969 0.30664062 5.89648438 C0.20072632 3.93118553 0.09987449 1.96561504 0 0 Z " fill="#394F33" transform="translate(95,249)"/>
<path d="M0 0 C0.33 0.99 0.66 1.98 1 3 C4.3 3 7.6 3 11 3 C11 3.33 11 3.66 11 4 C7.7 4 4.4 4 1 4 C0.67 6.97 0.34 9.94 0 13 C-1.65 13 -3.3 13 -5 13 C-5 9.51038791 -4.09620626 7.88519705 -2.5 4.8125 C-2.0359375 3.91144531 -1.571875 3.01039063 -1.09375 2.08203125 C-0.7328125 1.39496094 -0.371875 0.70789063 0 0 Z " fill="#9BA397" transform="translate(198,262)"/>
<path d="M0 0 C2.97 0 5.94 0 9 0 C9 0.33 9 0.66 9 1 C7.02 1 5.04 1 3 1 C2.67 8.26 2.34 15.52 2 23 C1.67 23 1.34 23 1 23 C-0.06059488 15.31068715 -0.09928082 7.75493514 0 0 Z " fill="#3D5238" transform="translate(82,249)"/>
<path d="M0 0 C3.96 0 7.92 0 12 0 C12 0.99 12 1.98 12 3 C8.37 2.34 4.74 1.68 1 1 C1 3.97 1 6.94 1 10 C4.46941546 9.54177532 7.67395049 9.10868317 11 8 C11 10.31 11 12.62 11 15 C10.34 15 9.68 15 9 15 C9 13.68 9 12.36 9 11 C6.03 11 3.06 11 0 11 C0 7.37 0 3.74 0 0 Z " fill="#7D877B" transform="translate(330,249)"/>
<path d="M0 0 C0.66 0 1.32 0 2 0 C2.04254356 1.99954746 2.04080783 4.00041636 2 6 C1 7 1 7 -0.76586914 7.11352539 C-1.51473389 7.10828857 -2.26359863 7.10305176 -3.03515625 7.09765625 C-3.84404297 7.09443359 -4.65292969 7.09121094 -5.48632812 7.08789062 C-6.33646484 7.07951172 -7.18660156 7.07113281 -8.0625 7.0625 C-8.91650391 7.05798828 -9.77050781 7.05347656 -10.65039062 7.04882812 C-12.76695663 7.03700373 -14.88348685 7.01906769 -17 7 C-17 6.67 -17 6.34 -17 6 C-15.02 5.67 -13.04 5.34 -11 5 C-11 4.67 -11 4.34 -11 4 C-10.37351562 3.96261719 -9.74703125 3.92523438 -9.1015625 3.88671875 C-8.28429687 3.82097656 -7.46703125 3.75523437 -6.625 3.6875 C-5.81289063 3.62949219 -5.00078125 3.57148438 -4.1640625 3.51171875 C-1.62078662 3.17009472 -1.62078662 3.17009472 0 0 Z " fill="#909C8E" transform="translate(392,268)"/>
<path d="M0 0 C0.66 0 1.32 0 2 0 C2.04254356 1.99954746 2.04080783 4.00041636 2 6 C1 7 1 7 -0.76586914 7.11352539 C-1.51473389 7.10828857 -2.26359863 7.10305176 -3.03515625 7.09765625 C-3.84404297 7.09443359 -4.65292969 7.09121094 -5.48632812 7.08789062 C-6.33646484 7.07951172 -7.18660156 7.07113281 -8.0625 7.0625 C-8.91650391 7.05798828 -9.77050781 7.05347656 -10.65039062 7.04882812 C-12.76695663 7.03700373 -14.88348685 7.01906769 -17 7 C-16.67 6.01 -16.34 5.02 -16 4 C-16 4.66 -16 5.32 -16 6 C-14.35 5.67 -12.7 5.34 -11 5 C-11 4.67 -11 4.34 -11 4 C-10.37351562 3.96261719 -9.74703125 3.92523438 -9.1015625 3.88671875 C-8.28429687 3.82097656 -7.46703125 3.75523437 -6.625 3.6875 C-5.81289063 3.62949219 -5.00078125 3.57148438 -4.1640625 3.51171875 C-1.62078662 3.17009472 -1.62078662 3.17009472 0 0 Z " fill="#95A292" transform="translate(342,268)"/>
<path d="M0 0 C0.66 0 1.32 0 2 0 C2 1.98 2 3.96 2 6 C-2.92737019 7.97094808 -6.78020872 8.1799928 -12 8 C-11.67 7.01 -11.34 6.02 -11 5 C-9.00390625 4.375 -9.00390625 4.375 -6.5625 4 C-4.1571954 3.68428381 -4.1571954 3.68428381 -2 3 C-1.34 2.01 -0.68 1.02 0 0 Z " fill="#97A095" transform="translate(272,267)"/>
<path d="M0 0 C0.33 1.32 0.66 2.64 1 4 C1.66 4 2.32 4 3 4 C3.33 5.98 3.66 7.96 4 10 C3.34 9.34 2.68 8.68 2 8 C1.01 9.98 0.02 11.96 -1 14 C2.465 13.505 2.465 13.505 6 13 C6 13.66 6 14.32 6 15 C3.36 15 0.72 15 -2 15 C-3.08056059 11.02840314 -2.85815614 8.57446843 -1.5625 4.6875 C-1.27503906 3.80449219 -0.98757812 2.92148438 -0.69140625 2.01171875 C-0.46324219 1.34785156 -0.23507813 0.68398437 0 0 Z " fill="#9CA697" transform="translate(202,249)"/>
<path d="M0 0 C1.17426264 2.34852528 1.11508173 3.73774065 1.09765625 6.3515625 C1.09443359 7.20234375 1.09121094 8.053125 1.08789062 8.9296875 C1.07951172 9.81914062 1.07113281 10.70859375 1.0625 11.625 C1.05798828 12.5221875 1.05347656 13.419375 1.04882812 14.34375 C1.03702591 16.56256648 1.02056155 18.78125018 1 21 C1.99 20.34 2.98 19.68 4 19 C4 19.66 4 20.32 4 21 C5.32 21.33 6.64 21.66 8 22 C7.236875 22.28875 6.47375 22.5775 5.6875 22.875 C2.84970692 23.96269013 2.84970692 23.96269013 0 26 C-1.27137774 23.45724451 -1.129425 21.65191799 -1.1328125 18.80859375 C-1.13410156 17.78185547 -1.13539062 16.75511719 -1.13671875 15.69726562 C-1.13285156 14.62154297 -1.12898437 13.54582031 -1.125 12.4375 C-1.12886719 11.35791016 -1.13273438 10.27832031 -1.13671875 9.16601562 C-1.13542969 8.14056641 -1.13414063 7.11511719 -1.1328125 6.05859375 C-1.13168457 5.11298584 -1.13055664 4.16737793 -1.12939453 3.19311523 C-1 1 -1 1 0 0 Z " fill="#A2AD9F" transform="translate(13,228)"/>
<path d="M0 0 C0.33 0 0.66 0 1 0 C1.25477428 3.4361064 1.47439003 6.87357801 1.6875 10.3125 C1.76033203 11.28896484 1.83316406 12.26542969 1.90820312 13.27148438 C1.96298828 14.20927734 2.01777344 15.14707031 2.07421875 16.11328125 C2.13182373 16.97735596 2.18942871 17.84143066 2.2487793 18.73168945 C2 21 2 21 0.63452148 22.79638672 C-1.61315219 24.45150714 -2.89937567 24.18982584 -5.625 23.8125 C-6.42164062 23.71582031 -7.21828125 23.61914062 -8.0390625 23.51953125 C-8.68617187 23.34808594 -9.33328125 23.17664063 -10 23 C-10.33 22.34 -10.66 21.68 -11 21 C-7.7 21 -4.4 21 -1 21 C-0.67 14.07 -0.34 7.14 0 0 Z " fill="#9FA79D" transform="translate(113,250)"/>
<path d="M0 0 C2.375 0.6875 2.375 0.6875 3.375 1.6875 C3.41592937 4.02047433 3.41741723 6.35455225 3.375 8.6875 C2.385 9.0175 1.395 9.3475 0.375 9.6875 C0.313125 8.73875 0.25125 7.79 0.1875 6.8125 C-0.080625 5.78125 -0.34875 4.75 -0.625 3.6875 C-3.08755685 2.23458727 -3.08755685 2.23458727 -5.625 1.6875 C-2.625 -0.3125 -2.625 -0.3125 0 0 Z " fill="#53674E" transform="translate(410.625,261.3125)"/>
<path d="M0 0 C1.98 0 3.96 0 6 0 C6 2.97 6 5.94 6 9 C5.01 9 4.02 9 3 9 C0 3.375 0 3.375 0 0 Z " fill="#697865" transform="translate(493,226)"/>
<path d="M0 0 C7.92 0 15.84 0 24 0 C24.33 1.32 24.66 2.64 25 4 C24.28457031 3.86722656 23.56914062 3.73445312 22.83203125 3.59765625 C15.23340076 2.25093907 7.70041829 1.47196112 0 1 C0 0.67 0 0.34 0 0 Z " fill="#586756" transform="translate(469,226)"/>
<path d="M0 0 C2.5 2.3125 2.5 2.3125 5 5 C5 5.99 5 6.98 5 8 C4.01 8 3.02 8 2 8 C1.67 8.66 1.34 9.32 1 10 C-0.98 6.535 -0.98 6.535 -3 3 C-2.01 2.01 -1.02 1.02 0 0 Z " fill="#6D7F6A" transform="translate(228,256)"/>
<path d="M0 0 C1.32 0.33 2.64 0.66 4 1 C4 2.32 4 3.64 4 5 C3.34 5 2.68 5 2 5 C2.14046255 7.95867918 2.28712224 10.91682264 2.4375 13.875 C2.47681641 14.71675781 2.51613281 15.55851562 2.55664062 16.42578125 C2.59853516 17.23144531 2.64042969 18.03710938 2.68359375 18.8671875 C2.72025146 19.61081543 2.75690918 20.35444336 2.79467773 21.12060547 C2.89955865 23.08864312 2.89955865 23.08864312 4 25 C2.68 25 1.36 25 0 25 C0 16.75 0 8.5 0 0 Z " fill="#4B5A49" transform="translate(219,249)"/>
<path d="M0 0 C6.93 0 13.86 0 21 0 C21 0.66 21 1.32 21 2 C18.69 2 16.38 2 14 2 C13.67 3.32 13.34 4.64 13 6 C12.01 5.67 11.02 5.34 10 5 C10 4.34 10 3.68 10 3 C6.7 2.34 3.4 1.68 0 1 C0 0.67 0 0.34 0 0 Z " fill="#959E92" transform="translate(81,248)"/>
<path d="M0 0 C0.66 0 1.32 0 2 0 C2 4.29 2 8.58 2 13 C0.68 12.67 -0.64 12.34 -2 12 C-2.28571429 3.42857143 -2.28571429 3.42857143 0 0 Z " fill="#384E33" transform="translate(278,254)"/>
<path d="M0 0 C1.65 0.33 3.3 0.66 5 1 C5.1875 3.875 5.1875 3.875 5 7 C4.01 7.66 3.02 8.32 2 9 C2 8.34 2 7.68 2 7 C1.01 7.33 0.02 7.66 -1 8 C-0.67 5.36 -0.34 2.72 0 0 Z " fill="#8D9A89" transform="translate(366,251)"/>
<path d="M0 0 C0.99 0 1.98 0 3 0 C1.70700306 2.88437779 0.34058637 4.87219421 -2 7 C-1.34 7.66 -0.68 8.32 0 9 C-2.64 9 -5.28 9 -8 9 C-7.04270084 7.87411986 -6.08412105 6.7493285 -5.125 5.625 C-4.59132813 4.99851563 -4.05765625 4.37203125 -3.5078125 3.7265625 C-2.38567993 2.44163349 -1.20628025 1.20628025 0 0 Z " fill="#748071" transform="translate(25,238)"/>
<path d="M0 0 C0.66 0.66 1.32 1.32 2 2 C0.71520959 3.50589388 -0.57804082 5.00457375 -1.875 6.5 C-2.95394531 7.75296875 -2.95394531 7.75296875 -4.0546875 9.03125 C-4.69664062 9.6809375 -5.33859375 10.330625 -6 11 C-6.66 11 -7.32 11 -8 11 C-8 11.66 -8 12.32 -8 13 C-8.66 13 -9.32 13 -10 13 C-8.56501627 9.79111679 -6.78256013 7.42193016 -4.4375 4.8125 C-3.81746094 4.11769531 -3.19742188 3.42289062 -2.55859375 2.70703125 C-1.72141231 1.79011824 -0.8779528 0.8779528 0 0 Z " fill="#667663" transform="translate(212,343)"/>
<path d="M0 0 C0.33 0.66 0.66 1.32 1 2 C1.66 2.33 2.32 2.66 3 3 C2.01 5.31 1.02 7.62 0 10 C1.65 10.33 3.3 10.66 5 11 C5.33 10.34 5.66 9.68 6 9 C6 9.99 6 10.98 6 12 C3.36 12 0.72 12 -2 12 C-3.12377697 8.69564916 -2.89554742 6.9493138 -1.5625 3.75 C-1.27503906 3.04359375 -0.98757812 2.3371875 -0.69140625 1.609375 C-0.46324219 1.07828125 -0.23507813 0.5471875 0 0 Z " fill="#97A093" transform="translate(61,252)"/>
<path d="M0 0 C2 1 4 2 6 3 C6 5.31 6 7.62 6 10 C3 9 3 9 1.3125 6.125 C0 3 0 3 0 0 Z " fill="#4A5E47" transform="translate(132,264)"/>
<path d="M0 0 C4.62 0 9.24 0 14 0 C13.67 0.99 13.34 1.98 13 3 C11.01432292 2.96744792 9.02864583 2.93489583 7.04296875 2.90234375 C4.79694539 2.91736783 4.79694539 2.91736783 2 4 C1.34 3.67 0.68 3.34 0 3 C0 2.01 0 1.02 0 0 Z " fill="#808E7E" transform="translate(2,225)"/>
<path d="M0 0 C0.33 1.32 0.66 2.64 1 4 C3.31 4.33 5.62 4.66 8 5 C8.66 4.01 9.32 3.02 10 2 C10.66 3.32 11.32 4.64 12 6 C11 7 11 7 8.05859375 7.09765625 C6.26615234 7.08025391 6.26615234 7.08025391 4.4375 7.0625 C2.64119141 7.04896484 2.64119141 7.04896484 0.80859375 7.03515625 C-0.11824219 7.02355469 -1.04507812 7.01195312 -2 7 C-1.42415568 4.61435923 -0.77772405 2.33317216 0 0 Z " fill="#A0AA9F" transform="translate(4,270)"/>
<path d="M0 0 C0.66 0.33 1.32 0.66 2 1 C2 1.99 2 2.98 2 4 C2.66 4 3.32 4 4 4 C3.67 5.98 3.34 7.96 3 10 C2.01 9.67 1.02 9.34 0 9 C-1.36623674 6.26752652 -1.128426 4.01801098 -1 1 C-0.67 0.67 -0.34 0.34 0 0 Z " fill="#586852" transform="translate(311,265)"/>
<path d="M0 0 C0.99 0.33 1.98 0.66 3 1 C2.06725891 2.12894876 1.12859878 3.25300876 0.1875 4.375 C-0.33457031 5.00148438 -0.85664063 5.62796875 -1.39453125 6.2734375 C-3 8 -3 8 -6 10 C-5.58578031 5.16743695 -3.53586014 3.17320782 0 0 Z " fill="#647460" transform="translate(193,336)"/>
<path d="M0 0 C0.99 0 1.98 0 3 0 C3 0.99 3 1.98 3 3 C5.475 3.99 5.475 3.99 8 5 C8 5.66 8 6.32 8 7 C1.125 6.125 1.125 6.125 0 5 C-0.04063832 3.33382885 -0.042721 1.66611905 0 0 Z " fill="#6C7A68" transform="translate(458,268)"/>
<path d="M0 0 C-2.71453434 1.46401852 -5.17402391 2.36677426 -8.1875 3 C-9.445625 3.33 -10.70375 3.66 -12 4 C-12.33 4.66 -12.66 5.32 -13 6 C-13.99 5.34 -14.98 4.68 -16 4 C-10.77531236 -0.39973696 -6.69286912 -0.47617251 0 0 Z " fill="#879085" transform="translate(434,248)"/>
<path d="M0 0 C0.99 0 1.98 0 3 0 C3.33 1.32 3.66 2.64 4 4 C4.66 3.01 5.32 2.02 6 1 C6 1.99 6 2.98 6 4 C7.32 4.33 8.64 4.66 10 5 C9.34 5.66 8.68 6.32 8 7 C5 6.8125 5 6.8125 2 6 C0 3 0 3 0 0 Z " fill="#849382" transform="translate(366,268)"/>
<path d="M0 0 C0.103125 0.639375 0.20625 1.27875 0.3125 1.9375 C0.539375 2.618125 0.76625 3.29875 1 4 C1.99 4.33 2.98 4.66 4 5 C4.33 5.99 4.66 6.98 5 8 C4 9 4 9 1.4375 9.0625 C0.633125 9.041875 -0.17125 9.02125 -1 9 C-1.09765625 2.84765625 -1.09765625 2.84765625 -1 1 C-0.67 0.67 -0.34 0.34 0 0 Z " fill="#485C45" transform="translate(398,251)"/>
<path d="M0 0 C2.18975773 3.28463659 2.99806563 6.20696275 4 10 C2.68 11.32 1.36 12.64 0 14 C-0.76379333 10.26589925 -1.09361839 7.64539462 0 4 C0 2.68 0 1.36 0 0 Z " fill="#758773" transform="translate(210,257)"/>
<path d="M0 0 C0.66 0.33 1.32 0.66 2 1 C2.75 3.875 2.75 3.875 3 7 C2.01 8.485 2.01 8.485 1 10 C-1.3828125 10.29296875 -1.3828125 10.29296875 -4.125 10.1875 C-5.03507812 10.16042969 -5.94515625 10.13335937 -6.8828125 10.10546875 C-7.58148438 10.07066406 -8.28015625 10.03585937 -9 10 C-8.67 9.34 -8.34 8.68 -8 8 C-5.36 8.33 -2.72 8.66 0 9 C-0.185625 8.071875 -0.37125 7.14375 -0.5625 6.1875 C-1 3 -1 3 0 0 Z " fill="#465841" transform="translate(67,255)"/>
<path d="M0 0 C1.9451 2.91765 2.45276317 4.62537285 3 8 C2.34 8 1.68 8 1 8 C0.34 9.32 -0.32 10.64 -1 12 C-4.125 5.375 -4.125 5.375 -3 2 C-2.34 2.66 -1.68 3.32 -1 4 C-1.33 4.66 -1.66 5.32 -2 6 C-1.01 6 -0.02 6 1 6 C0.67 4.02 0.34 2.04 0 0 Z " fill="#879683" transform="translate(310,258)"/>
<path d="M0 0 C0.33 0 0.66 0 1 0 C1 3.63 1 7.26 1 11 C0.01 11 -0.98 11 -2 11 C-2.05399736 9.54207116 -2.09279177 8.08357288 -2.125 6.625 C-2.15980469 5.40683594 -2.15980469 5.40683594 -2.1953125 4.1640625 C-2 2 -2 2 0 0 Z " fill="#354E31" transform="translate(145,254)"/>
<path d="M0 0 C2.64 0 5.28 0 8 0 C7.67 1.32 7.34 2.64 7 4 C7 3.01 7 2.02 7 1 C6.34 1.66 5.68 2.32 5 3 C5.33 3.99 5.66 4.98 6 6 C5.01 7.485 5.01 7.485 4 9 C3.34 6.69 2.68 4.38 2 2 C1.34 2 0.68 2 0 2 C0 1.34 0 0.68 0 0 Z " fill="#879483" transform="translate(300,248)"/>
<path d="M0 0 C0.66 0.33 1.32 0.66 2 1 C2 4.3 2 7.6 2 11 C1.01 10.67 0.02 10.34 -1 10 C-1.125 2.25 -1.125 2.25 0 0 Z " fill="#395135" transform="translate(439,255)"/>
<path d="M0 0 C1.50433594 0.01353516 1.50433594 0.01353516 3.0390625 0.02734375 C3.80992187 0.03894531 4.58078125 0.05054688 5.375 0.0625 C2.36549877 1.67975534 -0.59603608 2.73832623 -3.875 3.6875 C-5.21304687 4.07808594 -5.21304687 4.07808594 -6.578125 4.4765625 C-7.25359375 4.66992188 -7.9290625 4.86328125 -8.625 5.0625 C-8.25 3.125 -8.25 3.125 -7.625 1.0625 C-4.98041621 -0.25979189 -2.94738699 -0.03427194 0 0 Z " fill="#7D867A" transform="translate(288.625,247.9375)"/>
<path d="M0 0 C0.66 0 1.32 0 2 0 C2.33 0.66 2.66 1.32 3 2 C3.99 2 4.98 2 6 2 C6 3.32 6 4.64 6 6 C6.66 6.33 7.32 6.66 8 7 C5.6875 7.3125 5.6875 7.3125 3 7 C1.18116991 4.6167054 0 3.04181663 0 0 Z " fill="#53684F" transform="translate(144,266)"/>
<path d="M0 0 C1.9375 0.6875 1.9375 0.6875 4 2 C4.75 4.625 4.75 4.625 5 7 C3.02 6.34 1.04 5.68 -1 5 C-0.67 3.35 -0.34 1.7 0 0 Z " fill="#576A52" transform="translate(125,253)"/>
<path d="M0 0 C2.31 0 4.62 0 7 0 C7 1.98 7 3.96 7 6 C6.01 5.67 5.02 5.34 4 5 C4 4.34 4 3.68 4 3 C2.68 2.67 1.36 2.34 0 2 C0 1.34 0 0.68 0 0 Z " fill="#798276" transform="translate(266,249)"/>
<path d="M0 0 C1.98 0 3.96 0 6 0 C6.33 1.98 6.66 3.96 7 6 C6.01 6 5.02 6 4 6 C0 1.54285714 0 1.54285714 0 0 Z " fill="#7E887A" transform="translate(158,249)"/>
<path d="M0 0 C0.99 0.33 1.98 0.66 3 1 C0.69 3.31 -1.62 5.62 -4 8 C-4.66 7.34 -5.32 6.68 -6 6 C-2.25 1.125 -2.25 1.125 0 0 Z " fill="#5F705C" transform="translate(176,336)"/>
<path d="M0 0 C2.625 0.9375 2.625 0.9375 5 2 C5 2.99 5 3.98 5 5 C5.66 5.33 6.32 5.66 7 6 C4.75 6.3125 4.75 6.3125 2 6 C-0.3125 3.5 -0.3125 3.5 -2 1 C-1.34 0.67 -0.68 0.34 0 0 Z " fill="#586B53" transform="translate(172,267)"/>
<path d="M0 0 C0.33 0 0.66 0 1 0 C1 2.64 1 5.28 1 8 C-0.32 8.33 -1.64 8.66 -3 9 C-3 6.69 -3 4.38 -3 2 C-2.34 2 -1.68 2 -1 2 C-0.67 1.34 -0.34 0.68 0 0 Z " fill="#647861" transform="translate(166,262)"/>
<path d="M0 0 C1.9451 2.91765 2.45276317 4.62537285 3 8 C2.34 8 1.68 8 1 8 C0.67 9.32 0.34 10.64 0 12 C-1.12256131 9.75487738 -1.13413762 8.48543351 -1.125 6 C-1.12886719 4.948125 -1.12886719 4.948125 -1.1328125 3.875 C-1 2 -1 2 0 0 Z " fill="#748570" transform="translate(250,256)"/>
<path d="M0 0 C2.375 -0.1875 2.375 -0.1875 5 0 C7.1519437 3.22791555 7.20086443 4.28400809 7 8 C6.01 8 5.02 8 4 8 C3.67 6.02 3.34 4.04 3 2 C2.01 1.67 1.02 1.34 0 1 C0 0.67 0 0.34 0 0 Z " fill="#42543F" transform="translate(454,249)"/>
<path d="M0 0 C0 3.25811062 -0.5522078 5.10441559 -2 8 C-2.99 8.33 -3.98 8.66 -5 9 C-5 9.99 -5 10.98 -5 12 C-5.66 12 -6.32 12 -7 12 C-5.44298069 7.32894208 -2.91552627 3.91294315 0 0 Z " fill="#7D8C79" transform="translate(232,350)"/>
<path d="M0 0 C0.33 0.66 0.66 1.32 1 2 C3.34907875 2.68931344 3.34907875 2.68931344 6.0625 3.125 C6.98160156 3.29257812 7.90070313 3.46015625 8.84765625 3.6328125 C9.91306641 3.81457031 9.91306641 3.81457031 11 4 C10.67 4.66 10.34 5.32 10 6 C8.54052295 5.93993922 7.08220728 5.8511311 5.625 5.75 C4.81289062 5.70359375 4.00078125 5.6571875 3.1640625 5.609375 C1 5 1 5 -0.2890625 2.953125 C-0.52367188 2.30859375 -0.75828125 1.6640625 -1 1 C-0.67 0.67 -0.34 0.34 0 0 Z " fill="#616E5D" transform="translate(99,269)"/>
<path d="M0 0 C0.33 0 0.66 0 1 0 C1.33 2.97 1.66 5.94 2 9 C1.01 9.33 0.02 9.66 -1 10 C-2 9 -2 9 -2.1875 6.125 C-2 3 -2 3 0 0 Z " fill="#3A4E35" transform="translate(418,256)"/>
<path d="M0 0 C1.67542976 0.28604898 3.34385343 0.61781233 5 1 C5 1.66 5 2.32 5 3 C6.65 3 8.3 3 10 3 C10 3.33 10 3.66 10 4 C6.7 4 3.4 4 0 4 C-0.33 3.01 -0.66 2.02 -1 1 C-0.67 0.67 -0.34 0.34 0 0 Z " fill="#5F6F5C" transform="translate(256,270)"/>
<path d="M0 0 C0.66 0.66 1.32 1.32 2 2 C1.64700993 5.44165321 0.95418308 7.06872538 -1 10 C-1 9.34 -1 8.68 -1 8 C-1.66 8 -2.32 8 -3 8 C-3 7.01 -3 6.02 -3 5 C-2.34 5 -1.68 5 -1 5 C-0.67 3.35 -0.34 1.7 0 0 Z " fill="#9CA699" transform="translate(316,261)"/>
<path d="M0 0 C0.66 0.99 1.32 1.98 2 3 C1.67 4.32 1.34 5.64 1 7 C-2.63 7 -6.26 7 -10 7 C-9.67 6.01 -9.34 5.02 -9 4 C-9 4.66 -9 5.32 -9 6 C-6.36 6 -3.72 6 -1 6 C-0.67 4.02 -0.34 2.04 0 0 Z " fill="#455741" transform="translate(209,258)"/>
<path d="M0 0 C6.91428571 0.94285714 6.91428571 0.94285714 10 3 C10.33 3.99 10.66 4.98 11 6 C6.95743617 4.77782954 3.50711041 3.37245704 0 1 C0 0.67 0 0.34 0 0 Z " fill="#697D68" transform="translate(279,224)"/>
<path d="M0 0 C0.99 0.33 1.98 0.66 3 1 C3 1.66 3 2.32 3 3 C5.31 3 7.62 3 10 3 C9.67 3.66 9.34 4.32 9 5 C2.375 5.25 2.375 5.25 -1 3 C-0.67 2.01 -0.34 1.02 0 0 Z " fill="#7C8779" transform="translate(150,270)"/>
<path d="M0 0 C0.99 0.33 1.98 0.66 3 1 C3.33 1.99 3.66 2.98 4 4 C2.125 5.0625 2.125 5.0625 0 6 C-0.66 5.67 -1.32 5.34 -2 5 C-2 3.68 -2 2.36 -2 1 C-1.34 0.67 -0.68 0.34 0 0 Z " fill="#586C54" transform="translate(420,266)"/>
<path d="M0 0 C1.98 0 3.96 0 6 0 C6 1.98 6 3.96 6 6 C4 6 4 6 1.875 4.125 C0 2 0 2 0 0 Z " fill="#717A6E" transform="translate(407,249)"/>
<path d="M0 0 C1.98 0 3.96 0 6 0 C6 3.3 6 6.6 6 10 C5.67 10 5.34 10 5 10 C5 7.36 5 4.72 5 2 C3.35 2.33 1.7 2.66 0 3 C0 2.01 0 1.02 0 0 Z " fill="#909A8E" transform="translate(187,261)"/>
<path d="M0 0 C0.99 0 1.98 0 3 0 C3.33 2.64 3.66 5.28 4 8 C3.01 8 2.02 8 1 8 C1.33 6.35 1.66 4.7 2 3 C1.34 2.67 0.68 2.34 0 2 C0 1.34 0 0.68 0 0 Z " fill="#3A4F36" transform="translate(304,249)"/>
<path d="M0 0 C1.08667969 0.29197266 1.08667969 0.29197266 2.1953125 0.58984375 C2.74960937 0.74582031 3.30390625 0.90179688 3.875 1.0625 C0.0246895 3.62937367 -1.71069763 2.89538724 -6.125 2.0625 C-6.125 1.4025 -6.125 0.7425 -6.125 0.0625 C-3.57797384 -1.21101308 -2.6967055 -0.73941925 0 0 Z " fill="#3C4F37" transform="translate(23.125,246.9375)"/>
<path d="M0 0 C0.99 0 1.98 0 3 0 C3 2.64 3 5.28 3 8 C2.34 8 1.68 8 1 8 C0.67 5.36 0.34 2.72 0 0 Z " fill="#394F36" transform="translate(189,263)"/>
<path d="M0 0 C1.98 0 3.96 0 6 0 C5.67 1.98 5.34 3.96 5 6 C4.67 5.01 4.34 4.02 4 3 C2.68 3 1.36 3 0 3 C0 2.01 0 1.02 0 0 Z " fill="#828E7F" transform="translate(160,261)"/>
<path d="M0 0 C1.65 0.33 3.3 0.66 5 1 C5 1.66 5 2.32 5 3 C2.29120665 4.35439668 -0.00933268 4.06501451 -3 4 C-2.01 3.67 -1.02 3.34 0 3 C0 2.01 0 1.02 0 0 Z " fill="#859082" transform="translate(42,273)"/>
<path d="M0 0 C0.66 0.33 1.32 0.66 2 1 C1.67 1.66 1.34 2.32 1 3 C0.34 3 -0.32 3 -1 3 C-0.67 4.65 -0.34 6.3 0 8 C-1.37562854 6.71034824 -2.70766393 5.37310707 -4 4 C-4 3.34 -4 2.68 -4 2 C-2.125 0.9375 -2.125 0.9375 0 0 Z " fill="#798878" transform="translate(259,198)"/>
<path d="M0 0 C0.99 0 1.98 0 3 0 C4.85776765 3.13498292 5.20140476 5.37471432 5 9 C2.67527795 6.14693203 1.2491742 3.45925163 0 0 Z " fill="#7C8B78" transform="translate(332,361)"/>
<path d="M0 0 C0.66 0 1.32 0 2 0 C2 1.98 2 3.96 2 6 C0.35 6 -1.3 6 -3 6 C-2.34 5.67 -1.68 5.34 -1 5 C-0.34444881 2.47266765 -0.34444881 2.47266765 0 0 Z " fill="#737C71" transform="translate(272,267)"/>
<path d="M0 0 C2.875 -0.1875 2.875 -0.1875 6 0 C6.66 0.99 7.32 1.98 8 3 C7.01 3.33 6.02 3.66 5 4 C5 3.01 5 2.02 5 1 C4.01 2.485 4.01 2.485 3 4 C2.01 3.34 1.02 2.68 0 2 C0 1.34 0 0.68 0 0 Z " fill="#6A7968" transform="translate(290,249)"/>
<path d="M0 0 C3.63 0 7.26 0 11 0 C11 1.32 11 2.64 11 4 C10.34 4 9.68 4 9 4 C9 3.34 9 2.68 9 2 C6.03 1.67 3.06 1.34 0 1 C0 0.67 0 0.34 0 0 Z " fill="#697566" transform="translate(381,249)"/>
<path d="M0 0 C0.33 0.66 0.66 1.32 1 2 C3.02463255 2.65213292 3.02463255 2.65213292 5 3 C4.236875 3.28875 3.47375 3.5775 2.6875 3.875 C-0.15029308 4.96269013 -0.15029308 4.96269013 -3 7 C-2.25 2.25 -2.25 2.25 0 0 Z " fill="#838E80" transform="translate(16,247)"/>
<path d="M0 0 C3.3 0 6.6 0 10 0 C7.08235 1.9451 5.37462715 2.45276317 2 3 C1.34 2.01 0.68 1.02 0 0 Z " fill="#42533F" transform="translate(33,226)"/>
<path d="M0 0 C0.33 0 0.66 0 1 0 C1 3.3 1 6.6 1 10 C-0.65 9.01 -2.3 8.02 -4 7 C-2.68 6.67 -1.36 6.34 0 6 C0 4.02 0 2.04 0 0 Z " fill="#D7C99A" transform="translate(245,164)"/>
<path d="M0 0 C0.66 0.33 1.32 0.66 2 1 C0.35 2.65 -1.3 4.3 -3 6 C-3.66 5.01 -4.32 4.02 -5 3 C-2.625 1.4375 -2.625 1.4375 0 0 Z " fill="#647561" transform="translate(235,312)"/>
<path d="M0 0 C4 4.875 4 4.875 4 6 C2.35 6 0.7 6 -1 6 C-0.67 4.02 -0.34 2.04 0 0 Z " fill="#3F533A" transform="translate(72,268)"/>
<path d="M0 0 C1.65 0 3.3 0 5 0 C5.33 1.32 5.66 2.64 6 4 C4.02 4.99 4.02 4.99 2 6 C1.34 4.02 0.68 2.04 0 0 Z " fill="#6C7F69" transform="translate(454,262)"/>
<path d="M0 0 C1.32 0.33 2.64 0.66 4 1 C4 2.65 4 4.3 4 6 C3.01 5.67 2.02 5.34 1 5 C0.67 3.35 0.34 1.7 0 0 Z " fill="#3B5037" transform="translate(366,251)"/>
<path d="M0 0 C1.32 0.66 2.64 1.32 4 2 C2.68 3.32 1.36 4.64 0 6 C-0.99 5.67 -1.98 5.34 -3 5 C-2.01 3.35 -1.02 1.7 0 0 Z " fill="#677664" transform="translate(34,228)"/>
<path d="M0 0 C0.33 0.99 0.66 1.98 1 3 C1.99 3.33 2.98 3.66 4 4 C1.69 4.66 -0.62 5.32 -3 6 C-1.125 1.125 -1.125 1.125 0 0 Z " fill="#8D978B" transform="translate(259,183)"/>
<path d="M0 0 C0.66 0.33 1.32 0.66 2 1 C1.25 2.9375 1.25 2.9375 0 5 C-2.125 5.75 -2.125 5.75 -4 6 C-2.84826645 3.53199953 -1.95216435 1.95216435 0 0 Z " fill="#5F725B" transform="translate(267,173)"/>
<path d="M0 0 C1.9375 0.8125 1.9375 0.8125 4 2 C4.33 2.99 4.66 3.98 5 5 C2.5625 4.625 2.5625 4.625 0 4 C-0.33 3.34 -0.66 2.68 -1 2 C-0.67 1.34 -0.34 0.68 0 0 Z " fill="#4C6248" transform="translate(281,268)"/>
<path d="M0 0 C1.32 0 2.64 0 4 0 C3.34 1.98 2.68 3.96 2 6 C1.34 6 0.68 6 0 6 C0 4.02 0 2.04 0 0 Z " fill="#778275" transform="translate(320,249)"/>
<path d="M0 0 C2.6875 0.3125 2.6875 0.3125 5 1 C3.35 2.65 1.7 4.3 0 6 C-0.99 5.01 -1.98 4.02 -3 3 C-1.8125 1.4375 -1.8125 1.4375 0 0 Z " fill="#7C8C78" transform="translate(25,247)"/>
</svg>
